<svg aria-hidden="true" style="position:absolute;width:0;height:0;overflow:hidden" xmlns="http://www.w3.org/2000/svg">
  <defs>
    <symbol id="icon-learn-1" viewBox="0 0 32 32">
      <path fill="#00d0d2" style="fill:var(--color1, #00d0d2)" d="M31.258 8.824c-.782-1.66-3.498-2.2-7.169-1.71.143-3.7-.649-6.355-2.376-6.977-2.488-.895-6.175 2.7-9.173 8.511C6.153 7.253 1.031 7.801.136 10.289c-.622 1.725.918 4.028 3.86 6.278-2.717 2.515-4.034 4.952-3.254 6.612s3.498 2.2 7.169 1.71c-.143 3.7.649 6.355 2.376 6.977 2.488.895 6.175-2.7 9.173-8.511 6.387 1.395 11.509.847 12.404-1.641.622-1.725-.918-4.028-3.859-6.278 2.717-2.517 4.034-4.954 3.254-6.612zM20.283 4.111c1.147.414 1.927 1.586 2.315 3.246-2.111.41-4.467 1.118-6.906 2.107a42.692 42.692 0 0 0-2.506-.672c2.271-3.483 5.013-5.431 7.095-4.683l.002.002zm1.111 13.831c-.271.75-.567 1.473-.882 2.164-.658.38-1.349.744-2.072 1.082-.723.34-1.441.641-2.154.905a26.998 26.998 0 0 1-2.229-.7 26.066 26.066 0 0 1-4.74-2.25 26.126 26.126 0 0 1 1.288-5.086c.271-.75.567-1.473.882-2.164a28.048 28.048 0 0 1 4.225-1.988c.733.195 1.479.429 2.229.7a25.934 25.934 0 0 1 4.74 2.25 26.153 26.153 0 0 1-1.288 5.087zm1.813-4.755c1.139.742 2.114 1.536 2.883 2.338-1.151 1.452-2.868 2.927-4.983 4.225.221-.548.437-1.109.641-1.681a45.107 45.107 0 0 0 1.458-4.883h.002zm-2.994 7.545c-.338.687-.695 1.34-1.069 1.95a24.116 24.116 0 0 1-2.185-.42 46.774 46.774 0 0 0 3.252-1.529h.002zm-4.58 1.595c-2.349.8-4.58 1.185-6.431 1.145-.128-1.105-.118-2.361.038-3.712a45.142 45.142 0 0 0 6.395 2.568h-.002zm-6.84-3.513c-1.139-.742-2.114-1.536-2.883-2.338 1.151-1.452 2.868-2.927 4.983-4.225a44.155 44.155 0 0 0-.641 1.681 45.107 45.107 0 0 0-1.458 4.883h-.002zm2.993-7.547c.338-.687.695-1.34 1.069-1.95.708.101 1.439.242 2.185.42a47.617 47.617 0 0 0-3.252 1.529h-.002zm6.284-1.017a45.59 45.59 0 0 0-1.704-.576c2.349-.8 4.58-1.185 6.431-1.145.128 1.105.118 2.361-.038 3.712a45.142 45.142 0 0 0-4.691-1.992h.002zM4.112 11.719c.75-2.082 4-2.952 8.131-2.479a42.665 42.665 0 0 0-1.08 2.359c-2.319 1.248-4.364 2.609-6.026 3.975-1.032-1.359-1.437-2.706-1.025-3.855zm.453 9.66c-.519-1.103-.239-2.483.658-3.933a34.01 34.01 0 0 0 3.423 2.015 33.81 33.81 0 0 0-.63 3.92c-1.689-.231-2.931-.897-3.45-2v-.002zm7.154 6.511c-1.147-.414-1.927-1.586-2.315-3.246 2.111-.41 4.467-1.118 6.906-2.107.851.256 1.687.479 2.506.672-2.271 3.483-5.013 5.431-7.095 4.683l-.002-.002zm16.171-7.608c-.75 2.082-4 2.952-8.131 2.479.374-.754.735-1.542 1.08-2.359 2.319-1.248 4.364-2.609 6.026-3.975 1.032 1.359 1.437 2.706 1.025 3.855zm-1.113-5.727a34.102 34.102 0 0 0-3.422-2.015c.3-1.376.511-2.691.63-3.92 1.689.231 2.931.897 3.45 2s.239 2.483-.658 3.933v.002z"/>
      <path fill="#00d0d2" style="fill:var(--color1, #00d0d2)" d="M19.089 17.101a3.279 3.279 0 1 0-6.176-2.205 3.279 3.279 0 0 0 6.176 2.205z"/>
    </symbol>
    <symbol id="icon-learn-2" viewBox="0 0 32 32">
      <path fill="#00d0d2" style="fill:var(--color1, #00d0d2)" d="M15.999 32C7.177 32 0 24.823 0 16.001S7.177 0 15.999 0C24.821 0 32 7.177 32 16.001S24.823 32 15.999 32zm0-31.115C7.666.885.885 7.666.885 16.001s6.781 15.114 15.114 15.114c8.333 0 15.116-6.781 15.116-15.114S24.334.885 15.999.885z"/>
      <path fill="#00d0d2" style="fill:var(--color1, #00d0d2)" d="M15.999 32c-6.396 0-11.6-7.177-11.6-15.999S9.603 0 15.999 0s11.6 7.177 11.6 16.001S22.395 32 15.999 32zm0-31.115C10.09.885 5.284 7.666 5.284 16.001s4.808 15.114 10.715 15.114 10.715-6.781 10.715-15.114S21.908.885 15.999.885z"/>
      <path fill="#00d0d2" style="fill:var(--color1, #00d0d2)" d="M15.999 32c-1.599 0-3.061-1.725-4.111-4.859-1.002-2.983-1.553-6.94-1.553-11.142s.551-8.159 1.553-11.142C12.941 1.725 14.4 0 15.999 0s3.061 1.725 4.111 4.859c1.002 2.983 1.553 6.94 1.553 11.142s-.551 8.159-1.553 11.142c-1.051 3.134-2.512 4.859-4.111 4.859V32zm0-31.115c-2.309 0-4.779 6.073-4.779 15.116s2.47 15.114 4.779 15.114c2.309 0 4.779-6.073 4.779-15.114S18.308.885 15.999.885z"/>
      <path fill="#00d0d2" style="fill:var(--color1, #00d0d2)" d="M15.999 8.473c-4.28 0-8.274-1.221-11.246-3.437l.529-.71c2.82 2.103 6.626 3.26 10.718 3.26s7.895-1.159 10.717-3.26l.529.71C24.274 7.252 20.279 8.473 16 8.473zM16.003 29.171c-4.939 0-9.548-1.409-12.978-3.963l.529-.71c3.278 2.444 7.699 3.789 12.449 3.789s9.172-1.345 12.449-3.789l.529.71c-3.43 2.557-8.039 3.963-12.978 3.963zM15.999 14.168c-5.553 0-10.735-1.581-14.59-4.456l.529-.71c3.702 2.76 8.696 4.28 14.062 4.28s10.359-1.519 14.062-4.279l.529.71c-3.855 2.873-9.037 4.456-14.59 4.456z"/>
      <path fill="#00d0d2" style="fill:var(--color1, #00d0d2)" d="M15.999 25.423c-5.821 0-11.251-1.659-15.289-4.669l.529-.71c3.888 2.897 9.13 4.494 14.76 4.494s10.872-1.597 14.76-4.494l.529.71c-4.038 3.01-9.468 4.669-15.289 4.669zM15.999 19.812c-6.022 0-11.642-1.716-15.822-4.832l.529-.71c4.027 3.003 9.459 4.655 15.293 4.655s11.266-1.654 15.293-4.655l.529.71c-4.18 3.116-9.8 4.832-15.822 4.832zM15.999 3.799c-2.234 0-4.322-.639-5.879-1.8l.529-.71c1.404 1.046 3.304 1.623 5.35 1.623s3.945-.577 5.35-1.623l.529.71c-1.557 1.161-3.645 1.8-5.878 1.8z"/>
    </symbol>
    <symbol id="icon-learn-3" viewBox="0 0 36 32">
      <path fill="#00d0d2" style="fill:var(--color1, #00d0d2)" d="M35.641 28.017 20.293 1.329c-1.019-1.772-3.565-1.772-4.584 0L.359 28.017c-1.019 1.772.255 3.985 2.291 3.985h30.7c2.038 0 3.31-2.213 2.293-3.985h-.003zm-8.046-.028H8.404c-1.274 0-2.071-1.383-1.434-2.492l9.595-16.683a1.65 1.65 0 0 1 2.865 0l9.595 16.683c.637 1.107-.159 2.492-1.434 2.492h.003z"/>
    </symbol>
    <symbol id="icon-learn-4" viewBox="0 0 32 32">
      <path fill="#00d0d2" style="fill:var(--color1, #00d0d2)" d="M25.302 5.921c-.428 0-.777.349-.777.777s.349.777.777.777a.778.778 0 0 0 0-1.554zM16 9.113c-3.798 0-6.887 3.09-6.887 6.887s3.09 6.887 6.887 6.887c3.798 0 6.887-3.09 6.887-6.887S19.797 9.113 16 9.113z"/>
      <path fill="#00d0d2" style="fill:var(--color1, #00d0d2)" d="M23.228 0H8.773C3.936 0 .001 3.935.001 8.772v14.455c0 4.837 3.935 8.772 8.772 8.772h14.455c4.837 0 8.772-3.935 8.772-8.772V8.772C32 3.935 28.065 0 23.228 0zM16 24.777c-4.84 0-8.777-3.937-8.777-8.777S11.16 7.223 16 7.223 24.777 11.16 24.777 16 20.84 24.777 16 24.777zm9.302-15.412c-1.47 0-2.667-1.196-2.667-2.667s1.196-2.667 2.667-2.667c1.47 0 2.667 1.196 2.667 2.667s-1.196 2.667-2.667 2.667z"/>
    </symbol>
    <symbol id="icon-learn-5" viewBox="0 0 32 32">
      <path fill="#00d0d2" style="fill:var(--color1, #00d0d2)" d="M27.927 0H4.072A4.073 4.073 0 0 0-.001 4.073v23.855a4.073 4.073 0 0 0 4.073 4.073h11.685V18.686h-2.663V13.36h2.641v-2.407c0-2.178 1.038-5.582 5.604-5.582l4.114.016V9.95h-2.988c-.486 0-1.177.242-1.177 1.279v2.13h4.232l-.486 5.326h-3.952v13.314h6.844a4.071 4.071 0 0 0 4.073-4.073V4.071a4.071 4.071 0 0 0-4.073-4.073z"/>
    </symbol>
  </defs>
</svg>
