<svg aria-hidden="true" style="position: absolute; width: 0; height: 0; overflow: hidden;" version="1.1" xmlns="http://www.w3.org/2000/svg" xmlns:xlink="http://www.w3.org/1999/xlink">
<defs>
<symbol id="icon-hexagone" viewBox="0 0 32 32">
<path d="M20.358 32h-8.715v-8.434l-7.286 4.218-4.357-7.568 7.286-4.216-7.286-4.218 4.357-7.565 7.286 4.216v-8.434h8.715v8.434l7.286-4.216 4.357 7.565-7.286 4.218 7.286 4.216-4.357 7.565-7.286-4.218v8.436zM12.623 31.017h6.755v-9.153l7.907 4.577 3.379-5.866-7.907-4.575 7.907-4.577-3.379-5.866-7.907 4.577v-9.153h-6.755v9.153l-7.907-4.577-3.379 5.866 7.907 4.577-7.905 4.575 3.379 5.866 7.907-4.577v9.153h-0.002z"></path>
</symbol>
<symbol id="icon-rules" viewBox="0 0 114 32">
<path d="M113.111 31.723h-113.111v-31.723h113.111v31.723zM1.563 30.208h109.987v-28.693h-109.987v28.693z"></path>
<path d="M29.258 23.177h-23.31v3.772h23.31v-3.772z"></path>
<path d="M24.583 8.718h-3.67v12.57h3.67v-12.57z"></path>
<path d="M14.053 8.718h-3.67v12.57h3.67v-12.57z"></path>
<path d="M22.749 4.882l4.292 4.168h-8.588l4.295-4.168z"></path>
<path d="M12.22 4.882l4.292 4.168h-8.584l4.292-4.168z"></path>
<path d="M42.386 26.959c-2.363 0-4.289-1.869-4.289-4.161 0-0.418 0.351-0.759 0.781-0.759s0.781 0.338 0.781 0.759c0 1.46 1.225 2.647 2.726 2.647s2.726-1.186 2.726-2.647v-12.21c0-0.418 0.351-0.759 0.781-0.759s0.781 0.338 0.781 0.759v12.21c0 2.296-1.923 4.161-4.289 4.161z"></path>
<path d="M54.822 15.16h-17.861c0-3.9 3.999-7.060 8.932-7.060s8.932 3.16 8.932 7.060h-0.003z"></path>
<path d="M53.433 7.433c0.74-0.497 1.492-0.794 1.677-0.66 0.188 0.134 0.143 0.931-0.099 1.786-0.242 0.851-0.991 1.148-1.677 0.66s-0.644-1.288 0.099-1.786z"></path>
<path d="M45.288 3.744c0.74-0.497 1.492-0.794 1.677-0.66 0.188 0.134 0.144 0.931-0.099 1.786-0.242 0.851-0.992 1.148-1.677 0.66s-0.644-1.288 0.099-1.786z"></path>
<path d="M37.083 7.433c0.74-0.497 1.492-0.794 1.677-0.66s0.144 0.931-0.099 1.786c-0.242 0.851-0.992 1.148-1.677 0.66s-0.644-1.288 0.099-1.786z"></path>
<path d="M76.015 26.946h-13.549c0-1.129 3.033-2.044 6.773-2.044s6.773 0.915 6.773 2.044h0.003z"></path>
<path d="M76.015 4.882c0 7.194-2.468 11.652-5.698 12.456-0.351 0.089-0.711 0.134-1.078 0.134-0.268 0-0.536-0.026-0.794-0.077-3.367-0.631-5.979-5.3-5.979-12.513h5.918l-0.991 4.665 2.251-0.861-0.127 1.212-0.539 5.105 3.441-8.747-3.071 1.062 0.66-2.439 6.007 0.003z"></path>
<path d="M70.321 11.662v13.849h-1.875v-15.613h1.071l-0.542 5.316 1.346-3.552z"></path>
<path d="M106.874 21.267l-3.211-5.396c-0.029 0.459-0.048 0.775-0.048 0.775s-0.341-0.166-0.816-0.395l3.255 5.475c0.309 0.52 0.309 1.138 0 1.655-0.309 0.52-0.861 0.829-1.476 0.829h-8.314c-0.421 0.284-0.711 0.478-0.711 0.482 0 0 0.293 0.179 0.717 0.437h8.307c0.96 0 1.818-0.482 2.296-1.285 0.478-0.807 0.478-1.767 0-2.573v-0.003zM93.589 24.207h-6.645c-0.615 0-1.167-0.309-1.477-0.829-0.309-0.517-0.309-1.138 0-1.655l4.257-7.149c-0.028-0.437-0.051-0.73-0.051-0.73s-0.309 0.15-0.753 0.37c-0.035 0.016-0.070 0.035-0.106 0.051l-0.095 0.159-4.072 6.843c-0.478 0.807-0.478 1.767 0 2.573s1.336 1.285 2.296 1.285h6.559c-0.399-0.242-0.67-0.408-0.67-0.408s0.313-0.21 0.756-0.51zM102.151 13.326l-4.098-6.885c-0.478-0.807-1.337-1.288-2.296-1.288s-1.818 0.481-2.296 1.288l-3.243 5.456c0.434-0.214 0.733-0.36 0.733-0.36s0.026 0.354 0.061 0.861l3.268-5.498c0.309-0.52 0.861-0.829 1.477-0.829s1.167 0.309 1.476 0.829l4.315 7.248c0.453 0.22 0.765 0.373 0.769 0.373 0 0 0.019-0.319 0.047-0.781 0-0.016 0-0.032 0-0.048l-0.217-0.367h0.003z"></path>
<path d="M104.578 25.492h-8.415l-0.092-0.057c-0.597-0.364-0.896-0.613-0.896-0.749s0.291-0.396 0.874-0.781l0.095-0.064h8.431c0.482 0 0.909-0.242 1.151-0.644 0.239-0.402 0.239-0.887 0-1.288l-3.887-6.534 1.432 0.695c0.003-0.070 0.010-0.144 0.013-0.223l0.073-1.221 3.839 6.457c0.548 0.922 0.548 2.019 0 2.94s-1.527 1.47-2.625 1.47h0.006zM96.38 24.758h8.198c0.823 0 1.559-0.411 1.967-1.103 0.411-0.692 0.411-1.515 0-2.207l-2.685-4.512-0.058 0.077h-0.118l2.694 4.528c0.377 0.635 0.377 1.39 0 2.022-0.376 0.635-1.052 1.011-1.805 1.011h-8.195c-0.051 0.035-0.099 0.067-0.147 0.099 0.045 0.029 0.092 0.057 0.14 0.086h0.006zM94.817 25.492h-7.873c-1.097 0-2.076-0.548-2.625-1.47s-0.548-2.019 0-2.94l4.222-7.095 0.204-0.099c0.555-0.274 0.863-0.411 0.925-0.411 0.354 0 0.376 0.316 0.392 0.545l0.045 0.641-4.311 7.248c-0.239 0.405-0.239 0.886 0 1.288 0.239 0.405 0.67 0.644 1.151 0.644h7.854l-0.995 0.67c-0.102 0.070-0.198 0.134-0.287 0.191l1.298 0.791v-0.003zM89.084 14.541l-4.107 6.907c-0.412 0.692-0.412 1.515 0 2.207s1.148 1.103 1.967 1.103h5.51v-0.041c0-0.057 0-0.099 0.025-0.144h-5.535c-0.753 0-1.429-0.379-1.805-1.011s-0.377-1.39 0-2.022l4.196-7.054c0-0.022 0-0.045-0.003-0.067-0.073 0.038-0.156 0.077-0.242 0.118h-0.006v0.003zM102.461 14.889h-0.143c-0.060 0-0.319-0.111-0.778-0.332l-0.229-0.112-0.090-0.112-4.311-7.248c-0.239-0.405-0.669-0.644-1.151-0.644s-0.909 0.242-1.148 0.644l-3.893 6.544-0.083-1.205c-0.006-0.112-0.016-0.214-0.022-0.309-0.070 0.035-0.147 0.070-0.227 0.112l-1.135 0.558 3.881-6.524c0.549-0.922 1.527-1.47 2.625-1.47s2.076 0.548 2.625 1.47l4.369 7.344v0.105c-0.003 0.016-0.006 0.035-0.006 0.051-0.038 0.627-0.098 0.974-0.179 1.040l-0.108 0.089h0.006zM101.82 13.872l0.061 0.029c0.032 0.016 0.067 0.032 0.095 0.048 0.003-0.051 0.006-0.108 0.010-0.166l-4.257-7.156c-0.411-0.692-1.148-1.103-1.967-1.103s-1.556 0.411-1.967 1.103l-2.71 4.56c0.070 0.019 0.121 0.054 0.156 0.105l2.72-4.57c0.376-0.635 1.049-1.011 1.805-1.011s1.429 0.379 1.805 1.011l4.251 7.149z"></path>
<path d="M102.582 10.236c0 0-0.035 0.593-0.083 1.336-0.041 0.692-0.092 1.518-0.131 2.121 0 0.016 0 0.032 0 0.048-0.029 0.462-0.048 0.781-0.048 0.781s-0.315-0.153-0.768-0.373c0 0-0.029-0.016-0.045-0.022-0.549-0.268-1.289-0.625-1.91-0.928-0.689-0.335-1.234-0.6-1.234-0.6l4.219-2.363z"></path>
<path d="M102.461 14.889h-0.143c-0.060 0-0.319-0.111-0.778-0.332l-0.23-0.112c-0.548-0.265-1.272-0.619-1.884-0.915l-1.862-0.906 5.434-3.049-0.252 4.136c0 0 0 0.025 0 0.041-0.038 0.627-0.098 0.974-0.179 1.040l-0.108 0.089 0.003 0.006zM101.788 13.856l0.093 0.045c0.031 0.016 0.067 0.032 0.095 0.048 0.003-0.070 0.010-0.147 0.013-0.226l0.172-2.825-3.004 1.684 0.606 0.293c0.621 0.303 1.358 0.66 1.91 0.928l0.111 0.054h0.003z"></path>
<path d="M99.301 26.968c0 0-0.52-0.316-1.171-0.711-0.609-0.37-1.336-0.81-1.859-1.132-0.425-0.258-0.718-0.437-0.718-0.437s0.293-0.198 0.711-0.482c0.507-0.341 1.202-0.81 1.786-1.205 0.631-0.424 1.135-0.762 1.135-0.762l0.047 1.968 0.022 0.918 0.045 1.843z"></path>
<path d="M99.696 27.641l-1.971-1.199c-0.561-0.341-1.186-0.721-1.655-1.008-0.597-0.361-0.896-0.611-0.896-0.749s0.291-0.399 0.874-0.781l3.498-2.357 0.147 6.091 0.003 0.003zM96.239 24.672c0.073 0.045 0.15 0.092 0.233 0.14 0.469 0.284 1.094 0.666 1.655 1.008l0.781 0.475-0.079-3.367-2.344 1.578c-0.086 0.057-0.169 0.115-0.242 0.163l-0.003 0.003z"></path>
<path d="M89.961 18.126l-4.238-2.341c0 0 0.545-0.268 1.231-0.606 0.603-0.297 1.314-0.647 1.855-0.915 0.035-0.019 0.070-0.035 0.106-0.051 0.443-0.217 0.749-0.37 0.753-0.37s0.022 0.297 0.051 0.73c0 0.035 0.006 0.073 0.006 0.112 0.042 0.6 0.096 1.416 0.144 2.105 0.051 0.746 0.089 1.336 0.089 1.336h0.003z"></path>
<path d="M90.385 18.783l-5.456-3.014 3.814-1.881c0.555-0.274 0.863-0.411 0.925-0.411 0.354 0 0.376 0.316 0.392 0.545l0.322 4.761h0.003zM86.523 15.804l3.013 1.665-0.195-2.87c-0.003-0.064-0.010-0.124-0.013-0.179-0.073 0.038-0.156 0.077-0.242 0.118l-2.564 1.266z"></path>
</symbol>
</defs>
</svg>
