<svg aria-hidden="true" style="position: absolute; width: 0; height: 0; overflow: hidden;" version="1.1" xmlns="http://www.w3.org/2000/svg" xmlns:xlink="http://www.w3.org/1999/xlink">
<defs>
<symbol id="icon-checked-1" viewBox="0 0 32 32">
<path d="M31.223 14.114l-2.183-2.182c-0.518-0.518-0.942-1.542-0.942-2.276v-3.086c0-1.468-1.199-2.667-2.667-2.668h-3.087c-0.733 0-1.758-0.425-2.276-0.943l-2.182-2.182c-1.037-1.037-2.734-1.037-3.771 0l-2.182 2.184c-0.518 0.518-1.544 0.942-2.276 0.942h-3.086c-1.466 0-2.667 1.199-2.667 2.667v3.086c0 0.731-0.424 1.758-0.942 2.276l-2.182 2.182c-1.038 1.037-1.038 2.735 0 3.773l2.182 2.182c0.518 0.518 0.942 1.544 0.942 2.276v3.086c0 1.466 1.201 2.667 2.667 2.667h3.086c0.733 0 1.758 0.424 2.276 0.942l2.182 2.183c1.037 1.036 2.734 1.036 3.771 0l2.182-2.183c0.519-0.518 1.543-0.942 2.276-0.942h3.087c1.468 0 2.667-1.201 2.667-2.667v-3.086c0-0.734 0.425-1.758 0.942-2.276l2.182-2.182c1.036-1.038 1.036-2.736 0-3.773zM13.883 22l-5.884-5.884 1.886-1.885 3.998 3.998 8.231-8.229 1.885 1.885-10.117 10.115z"></path>
</symbol>
<symbol id="icon-Group-4060" viewBox="0 0 32 32">
<path d="M28.866 4h-14.089l-3.131-4h-7.827c-1.722 0-3.131 1.8-3.131 4v8h31.309v-4c0-2.2-1.409-4-3.131-4z"></path>
<path d="M28.8 4h-25.6c-1.76 0-3.2 1.8-3.2 4v20c0 2.2 1.44 4 3.2 4h25.6c1.76 0 3.2-1.8 3.2-4v-20c0-2.2-1.44-4-3.2-4z"></path>
</symbol>
<symbol id="icon-Group-4060-1" viewBox="0 0 32 32">
<path d="M24.727 0h-17.454c-1.928 0.002-3.777 0.769-5.14 2.133s-2.13 3.212-2.133 5.14v11.636c0.002 1.676 0.582 3.3 1.642 4.598s2.535 2.191 4.176 2.529v4.509c-0 0.263 0.071 0.522 0.207 0.748s0.329 0.411 0.562 0.535 0.494 0.183 0.757 0.17c0.263-0.013 0.518-0.097 0.737-0.243l8.356-5.574h8.291c1.928-0.002 3.777-0.769 5.14-2.133s2.13-3.212 2.133-5.14v-11.636c-0.002-1.928-0.769-3.777-2.133-5.14s-3.212-2.13-5.14-2.133zM21.818 17.454h-11.636c-0.386 0-0.756-0.153-1.028-0.426s-0.426-0.643-0.426-1.028c0-0.386 0.153-0.756 0.426-1.028s0.643-0.426 1.028-0.426h11.636c0.386 0 0.756 0.153 1.029 0.426s0.426 0.643 0.426 1.028-0.153 0.756-0.426 1.028c-0.273 0.273-0.643 0.426-1.029 0.426zM24.727 11.636h-17.454c-0.386 0-0.756-0.153-1.029-0.426s-0.426-0.643-0.426-1.028c0-0.386 0.153-0.756 0.426-1.028s0.643-0.426 1.029-0.426h17.454c0.386 0 0.756 0.153 1.028 0.426s0.426 0.643 0.426 1.028-0.153 0.756-0.426 1.028c-0.273 0.273-0.643 0.426-1.028 0.426z"></path>
</symbol>
<symbol id="icon-Group-4060-2" viewBox="0 0 27 32">
<path d="M16.058 15.59c0.487-0.592 0.78-1.349 0.78-2.174 0-1.888-1.536-3.423-3.423-3.423s-3.423 1.536-3.423 3.423c0 0.824 0.293 1.582 0.78 2.174-0.932 0.467-1.733 1.177-2.31 2.061 1.197 1.397 2.973 2.285 4.953 2.285s3.756-0.888 4.953-2.285c-0.577-0.884-1.378-1.594-2.31-2.061z"></path>
<path d="M22.902 3.929c-2.534-2.534-5.903-3.929-9.486-3.929s-6.953 1.395-9.487 3.929c-2.534 2.534-3.929 5.903-3.929 9.486s1.395 6.952 3.929 9.486l8.824 8.823c0.183 0.183 0.423 0.275 0.663 0.275s0.48-0.092 0.663-0.275l8.823-8.823c2.534-2.534 3.929-5.903 3.929-9.486s-1.396-6.952-3.929-9.486zM13.416 21.811c-4.629 0-8.395-3.766-8.395-8.395s3.766-8.395 8.395-8.395c4.629 0 8.394 3.766 8.394 8.395s-3.766 8.395-8.394 8.395z"></path>
</symbol>
<symbol id="icon-Layer-3" viewBox="0 0 32 32">
<path d="M27.664 2.133h-1.378v-1.067c0-0.283-0.12-0.554-0.335-0.754s-0.505-0.312-0.808-0.312-0.594 0.112-0.808 0.312c-0.214 0.2-0.335 0.471-0.335 0.754v1.067h-6.857v-1.067c0-0.283-0.12-0.554-0.335-0.754s-0.505-0.312-0.808-0.312c-0.303 0-0.594 0.112-0.808 0.312s-0.335 0.471-0.335 0.754v1.067h-6.857v-1.067c0-0.283-0.12-0.554-0.335-0.754s-0.505-0.312-0.808-0.312c-0.303 0-0.594 0.112-0.808 0.312s-0.335 0.471-0.335 0.754v1.067h-1.378c-1.149 0.002-2.251 0.429-3.064 1.187s-1.27 1.787-1.272 2.86v21.773c0.002 1.073 0.459 2.101 1.272 2.86s1.915 1.185 3.064 1.187h23.328c1.149-0.002 2.251-0.429 3.064-1.187s1.27-1.787 1.272-2.86v-21.773c-0.002-1.073-0.459-2.101-1.272-2.86s-1.915-1.186-3.064-1.187zM13.378 21.021l-3.429 3.2c-0.214 0.2-0.505 0.312-0.808 0.312s-0.594-0.112-0.808-0.312l-2.286-2.133c-0.109-0.098-0.196-0.216-0.256-0.346s-0.091-0.27-0.093-0.412c-0.001-0.142 0.028-0.282 0.085-0.413s0.142-0.25 0.25-0.35c0.107-0.1 0.235-0.179 0.375-0.233s0.291-0.081 0.443-0.079c0.152 0.001 0.302 0.031 0.441 0.087s0.266 0.137 0.371 0.239l1.479 1.379 2.621-2.446c0.216-0.194 0.504-0.302 0.804-0.299s0.586 0.115 0.798 0.312c0.212 0.198 0.332 0.465 0.335 0.745s-0.114 0.549-0.322 0.75zM13.378 11.421l-3.429 3.2c-0.214 0.2-0.505 0.312-0.808 0.312s-0.594-0.112-0.808-0.312l-2.286-2.133c-0.109-0.098-0.196-0.216-0.256-0.346s-0.091-0.27-0.093-0.412c-0.001-0.142 0.028-0.282 0.085-0.413s0.142-0.25 0.25-0.35c0.107-0.1 0.235-0.179 0.375-0.233s0.291-0.081 0.443-0.079c0.152 0.001 0.302 0.031 0.441 0.087s0.266 0.137 0.371 0.239l1.479 1.379 2.621-2.446c0.216-0.194 0.504-0.302 0.804-0.299s0.586 0.115 0.798 0.312c0.212 0.198 0.332 0.465 0.335 0.745s-0.114 0.549-0.322 0.75zM25.143 23.467h-8c-0.303 0-0.594-0.112-0.808-0.312s-0.335-0.471-0.335-0.754 0.12-0.554 0.335-0.754c0.214-0.2 0.505-0.312 0.808-0.312h8c0.303 0 0.594 0.112 0.808 0.312s0.335 0.471 0.335 0.754-0.12 0.554-0.335 0.754c-0.214 0.2-0.505 0.312-0.808 0.312zM25.143 13.867h-8c-0.303 0-0.594-0.112-0.808-0.312s-0.335-0.471-0.335-0.754c0-0.283 0.12-0.554 0.335-0.754s0.505-0.312 0.808-0.312h8c0.303 0 0.594 0.112 0.808 0.312s0.335 0.471 0.335 0.754-0.12 0.554-0.335 0.754c-0.214 0.2-0.505 0.312-0.808 0.312z"></path>
</symbol>
<symbol id="icon-test-1-1" viewBox="0 0 32 32">
<path d="M23.469 17.125c-4.101 0-7.438 3.336-7.438 7.438s3.336 7.437 7.438 7.437c4.136 0 7.5-3.336 7.5-7.437s-3.364-7.438-7.5-7.438zM25.751 23.663l-2.5 3c-0.179 0.215-0.444 0.337-0.72 0.337-0.036 0-0.072-0.002-0.108-0.006-0.314-0.036-0.589-0.229-0.731-0.512l-1-2c-0.232-0.463-0.044-1.026 0.419-1.258s1.026-0.044 1.258 0.419l0.359 0.718 1.582-1.899c0.332-0.398 0.923-0.451 1.32-0.12s0.452 0.923 0.12 1.32z"></path>
<path d="M23.065 5.341l-3.804-3.934c-0.002-0.002-0.004-0.004-0.005-0.006-0.876-0.891-2.095-1.401-3.344-1.401h-12.068c-1.551 0-2.813 1.262-2.813 2.813v24.312c0 1.551 1.262 2.812 2.813 2.812h12.024c-1.078-1.52-1.712-3.374-1.712-5.375 0-5.135 4.178-9.313 9.313-9.313 0.316 0 0.629 0.016 0.937 0.046v-6.673c0-1.236-0.476-2.401-1.342-3.283zM10.969 20.937h-5c-0.518 0-0.938-0.42-0.938-0.937s0.42-0.937 0.938-0.937h5c0.518 0 0.938 0.42 0.938 0.937s-0.42 0.937-0.938 0.937zM10.969 15.938h-5c-0.518 0-0.938-0.42-0.938-0.938s0.42-0.938 0.938-0.938h5c0.518 0 0.938 0.42 0.938 0.938s-0.42 0.938-0.938 0.938zM10.969 10.938h-5c-0.518 0-0.938-0.42-0.938-0.938s0.42-0.938 0.938-0.938h5c0.518 0 0.938 0.42 0.938 0.938s-0.42 0.938-0.938 0.938zM16.969 15.938h-1c-0.518 0-0.938-0.42-0.938-0.938s0.42-0.938 0.938-0.938h1c0.518 0 0.937 0.42 0.937 0.938s-0.42 0.938-0.937 0.938zM16.969 10.938h-1c-0.518 0-0.938-0.42-0.938-0.938s0.42-0.938 0.938-0.938h1c0.518 0 0.937 0.42 0.937 0.938s-0.42 0.938-0.937 0.938z"></path>
</symbol>
<symbol id="icon-Vector" viewBox="0 0 32 32">
<path d="M30.857 9.18c-0.805-1.836-1.878-3.672-3.22-4.984s-3.22-2.361-5.098-3.148c-2.146-0.787-4.293-1.049-6.708-1.049-1.61 0-2.952 0.262-4.293 0.525-1.342 0.525-2.683 1.049-3.757 1.836s-2.147 1.574-3.22 2.623c-1.073 1.049-1.878 2.098-2.415 3.41s-1.073 2.623-1.61 3.934c-0.268 1.311-0.537 2.885-0.537 4.197 0 1.574 0.268 2.885 0.537 4.197s0.805 2.623 1.61 3.672c0.805 1.049 1.61 2.361 2.415 3.148 1.073 1.049 2.147 1.836 3.22 2.361 1.073 0.787 2.415 1.312 3.757 1.574s2.952 0.525 4.293 0.525c1.61 0 2.951-0.262 4.561-0.525 1.341-0.525 2.683-1.049 3.756-1.574 1.073-0.787 2.147-1.574 3.22-2.623s1.878-2.098 2.415-3.41c0.537-1.311 1.073-2.623 1.61-3.934 0.268-1.311 0.537-2.885 0.537-4.459 0.268-2.361-0.268-4.459-1.073-6.295zM22.807 16.525c-0.537 1.049-1.61 1.574-2.415 2.098-1.073 0.525-2.147 1.311-2.952 1.836-1.341 0.787-2.683 1.836-4.293 2.098s-1.61-0.787-1.342-1.836c0.805-2.623 0.805-5.508 0.537-8.393 0-0.787-1.073-3.41 0.268-3.672 0.268 0 0.537 0 0.537 0 1.342 0.262 2.415 1.049 3.488 1.836 1.341 0.787 2.415 1.836 3.756 2.623 0.537 0.525 1.341 0.787 1.61 1.311 0.805 0.787 1.073 1.311 0.805 2.098z"></path>
</symbol>
<symbol id="icon-mortarboard-1" viewBox="0 0 32 32">
<path d="M31.821 23.060c-0.236-0.565-0.685-1.014-1.25-1.25v-8.106c0.108-0.162 0.181-0.344 0.214-0.536-0.002-0.364-0.21-0.695-0.536-0.857l-14.499-6.499c-0.226-0.109-0.489-0.109-0.714 0l-14.499 6.499c-0.346 0.139-0.562 0.485-0.536 0.857 0.003 0.368 0.251 0.69 0.607 0.786l4.964 1.714v6.428c0 0.281 0.132 0.546 0.357 0.714 0.237 0.174 0.547 0.215 0.821 0.107 5.563-2.072 11.686-2.072 17.249 0l0.321 0.071c0.181-0.005 0.356-0.068 0.5-0.178 0.248-0.152 0.398-0.424 0.393-0.714v-6.464l3.571-1.178v7.356c-1.183 0.493-1.743 1.852-1.25 3.036s1.852 1.743 3.035 1.25 1.743-1.852 1.25-3.035z"></path>
</symbol>
<symbol id="icon-plus-1" viewBox="0 0 32 32">
<path d="M29.188 13.188h-10.375v-10.375c0-1.553-1.259-2.813-2.812-2.813s-2.813 1.259-2.813 2.813v10.375h-10.375c-1.553 0-2.813 1.259-2.813 2.813s1.259 2.812 2.813 2.812h10.375v10.375c0 1.553 1.259 2.812 2.813 2.812s2.812-1.259 2.812-2.812v-10.375h10.375c1.553 0 2.812-1.259 2.812-2.812s-1.259-2.813-2.812-2.813z"></path>
</symbol>
</defs>
</svg>
