<svg width="422" height="19" fill="none" xmlns="http://www.w3.org/2000/svg">
  <g clip-path="url(#a)" fill="#fff">
    <path d="M321.001 18.462c-4.505 0-8.819-.77-12.146-2.167-3.916-1.643-6.072-3.95-6.072-6.495s2.342-5.013 6.426-6.64C312.48 1.858 316.667 1.14 321 1.14c4.332 0 8.519.718 11.79 2.022 4.083 1.626 6.426 4.045 6.426 6.64 0 2.593-2.156 4.851-6.071 6.494-3.328 1.397-7.641 2.167-12.145 2.167h.001Zm0-16.027c-4.172 0-8.19.685-11.313 1.93-3.567 1.42-5.612 3.4-5.612 5.435 0 2.035 1.924 3.893 5.278 5.3 3.173 1.332 7.309 2.066 11.646 2.066 4.337 0 8.472-.734 11.645-2.066 3.354-1.407 5.278-3.339 5.278-5.3 0-1.96-2.045-4.015-5.611-5.435-3.122-1.245-7.139-1.93-11.311-1.93Z"/>
    <path d="M321.001 6.386c-2.677 0-5.254-.263-7.66-.784a26.14 26.14 0 0 1-4.131-1.237l-1.511-.602 1.511-.601c3.271-1.304 7.459-2.022 11.792-2.022 4.332 0 8.519.718 11.79 2.022l1.511.602-1.511.602c-1.249.498-2.64.914-4.131 1.237-2.403.52-4.98.784-7.659.784h-.001Zm-9.594-2.623c.702.215 1.441.407 2.206.572 2.316.502 4.802.756 7.387.756s5.072-.254 7.385-.755a27.55 27.55 0 0 0 2.207-.573c-2.814-.861-6.151-1.328-9.592-1.328-3.442 0-6.778.466-9.594 1.328h.001ZM321.001 18.462c-4.505 0-8.818-.77-12.146-2.167l-1.424-.598 1.424-.597c1.284-.54 2.723-.989 4.278-1.337 2.462-.55 5.109-.83 7.868-.83 2.759 0 5.404.28 7.865.83 1.554.347 2.994.797 4.28 1.337l1.423.597-1.423.598c-3.328 1.397-7.641 2.167-12.145 2.167Zm-10.038-2.765c2.905.952 6.401 1.468 10.038 1.468 3.636 0 7.131-.516 10.036-1.468a26.349 26.349 0 0 0-2.453-.67c-2.369-.53-4.92-.798-7.584-.798-2.664 0-5.217.268-7.585.799-.859.192-1.678.415-2.453.67h.001Z"/>
    <path d="M321.001 18.462c-5.557 0-10.077-3.886-10.077-8.66 0-4.776 4.52-8.661 10.077-8.661 5.556 0 10.077 3.885 10.077 8.66s-4.521 8.661-10.077 8.661Zm0-16.027c-4.844 0-8.784 3.305-8.784 7.365 0 4.061 3.94 7.366 8.784 7.366 4.843 0 8.783-3.305 8.783-7.366 0-4.06-3.94-7.365-8.783-7.365Z"/>
    <path d="M321.647 1.788h-1.293v16.026h1.293V1.788Z"/>
    <path d="M338.57 9.152h-35.139v1.296h35.139V9.152ZM280.84 7.187c.078 0 .139.022.183.066a.25.25 0 0 1 .066.184V9.39a.248.248 0 0 1-.066.183.244.244 0 0 1-.183.066h-3.99a.25.25 0 0 1-.183-.066.248.248 0 0 1-.066-.183v-.71c0-.077.022-.138.066-.182a.248.248 0 0 1 .183-.066h1.125l.816-1.044c.05-.06.111-.11.183-.146a.49.49 0 0 1 .225-.054h1.641v-.001Zm-2.258 5.649a.244.244 0 0 1-.182-.066c-.046-.045-.067-.106-.067-.184v-1.46a.798.798 0 0 1 .15-.45l.559-.719a.49.49 0 0 1 .399-.2h1.392c.078 0 .138.022.183.066a.246.246 0 0 1 .067.184v2.578c0 .078-.022.14-.067.184a.246.246 0 0 1-.183.066h-2.25l-.001.001ZM281.74 7.437c0-.078.022-.138.066-.184a.249.249 0 0 1 .184-.066h6.731a.508.508 0 0 1 .399.2l.809 1.044h1.14a.25.25 0 0 1 .184.066.249.249 0 0 1 .066.183v.71a.248.248 0 0 1-.066.182c-.044.045-.106.067-.184.067h-6.09a.501.501 0 0 1-.399-.2l-.792-1.01h-1.799a.25.25 0 0 1-.184-.067c-.045-.044-.066-.106-.066-.184v-.742l.001.001Zm.25 5.399a.25.25 0 0 1-.184-.066.25.25 0 0 1-.066-.184v-2.578c0-.078.022-.138.066-.184.044-.045.106-.066.184-.066h2.182a.25.25 0 0 1 .184.066.25.25 0 0 1 .066.184v.376h4.299c.077 0 .152.018.225.053a.556.556 0 0 1 .183.147l.8 1.01h1.14a.25.25 0 0 1 .184.066.251.251 0 0 1 .066.184v.742a.25.25 0 0 1-.066.184.249.249 0 0 1-.184.066h-9.08.001ZM296.893 7.187c.1 0 .15.03.15.091a.24.24 0 0 1-.041.11l-3.741 5.248a.496.496 0 0 1-.392.2h-.974c-.1 0-.15-.03-.15-.091 0-.039.013-.075.041-.11l3.74-5.248a.501.501 0 0 1 .17-.146.472.472 0 0 1 .222-.054h.975ZM348.251 7.187c.1 0 .15.03.15.091a.229.229 0 0 1-.041.11l-3.74 5.248a.496.496 0 0 1-.392.2h-.975c-.1 0-.15-.03-.15-.091 0-.039.014-.075.042-.11l3.74-5.248a.492.492 0 0 1 .391-.2h.975ZM348.826 7.437c0-.078.022-.138.066-.184a.249.249 0 0 1 .184-.066h6.731a.501.501 0 0 1 .399.2l.809 1.044h1.14a.25.25 0 0 1 .184.066.245.245 0 0 1 .066.183v.71a.248.248 0 0 1-.066.182c-.044.045-.106.067-.184.067h-6.09a.501.501 0 0 1-.399-.2l-.792-1.01h-1.799a.25.25 0 0 1-.184-.067.25.25 0 0 1-.066-.184v-.742l.001.001Zm.25 5.399a.25.25 0 0 1-.184-.066.25.25 0 0 1-.066-.184v-2.578c0-.078.022-.138.066-.184a.249.249 0 0 1 .184-.066h2.182a.25.25 0 0 1 .184.066.25.25 0 0 1 .066.184v.376h4.299c.077 0 .152.018.224.053a.55.55 0 0 1 .184.147l.8 1.01h1.14a.25.25 0 0 1 .184.066.251.251 0 0 1 .066.184v.742a.25.25 0 0 1-.066.184.249.249 0 0 1-.184.066h-9.08.001ZM359.056 7.437c0-.078.022-.138.066-.184a.249.249 0 0 1 .184-.066h6.73a.502.502 0 0 1 .4.2l.808 1.044h1.141c.078 0 .138.022.184.066a.249.249 0 0 1 .066.183v.71a.248.248 0 0 1-.066.182.247.247 0 0 1-.184.067h-6.09a.502.502 0 0 1-.4-.2l-.791-1.01h-1.799a.25.25 0 0 1-.184-.067c-.045-.044-.066-.106-.066-.184v-.742l.001.001Zm.25 5.399a.25.25 0 0 1-.184-.066.25.25 0 0 1-.066-.184v-2.578c0-.078.022-.138.066-.184.044-.045.106-.066.184-.066h2.182c.078 0 .138.022.183.066.046.045.067.106.067.184v.376h4.298c.078 0 .153.018.225.053a.56.56 0 0 1 .184.147l.799 1.01h1.141c.078 0 .138.022.184.066a.251.251 0 0 1 .066.184v.742a.25.25 0 0 1-.066.184.25.25 0 0 1-.184.066h-9.08.001ZM384.301 12.769c-.279 1.722.976 3.258 2.416 4.095.139.046.279.14.418.233.651.325 1.301.512 2.044.652.418.046.79.093 1.208.14.605.046 1.208-.047 1.813.046 0 .046 0 .093.046.093-.094.093-.14.186-.233.233-.651.372-1.347.512-2.091.651-1.58.233-3.16 0-4.6-.605-1.487-.698-2.742-1.722-3.624-3.165-.605-1.024-.883-2.094-.93-3.258 0-1.768.79-3.583 2.37-4.514a2.47 2.47 0 0 0-1.301.046c-1.534.465-2.555 1.722-3.16 3.165-.232.605-.372 1.164-.511 1.815-.185.977-.046 1.908-.185 2.886-.186.046-.233-.14-.325-.28-.605-1.116-.744-2.373-.697-3.583.093-1.815.697-3.583 1.905-5.026 1.068-1.256 2.37-2.14 4.042-2.467 2.183-.419 4.553.373 5.669 2.28.139-.745-.046-1.489-.418-2.14-.744-1.256-1.905-2.048-3.252-2.513-.605-.233-1.254-.326-1.905-.42-.79-.093-1.58.047-2.37-.139a.47.47 0 0 1 .233-.279c.836-.466 1.765-.605 2.694-.698a9.53 9.53 0 0 1 2.277.14c2.276.465 4.181 1.676 5.343 3.677.604 1.024.883 2.094.929 3.257.046 1.768-.79 3.63-2.37 4.514 1.626.372 3.067-.837 3.95-2.187.093-.14.14-.279.233-.419.418-.745.604-1.536.79-2.42.185-.976.046-1.907.185-2.885h.093c.744.885.836 2.095.93 3.165.046.884-.094 1.676-.279 2.56a7.929 7.929 0 0 1-.836 2.046c-.465.838-1.069 1.49-1.813 2.141-1.719 1.396-3.995 1.955-6.086 1.256a5.022 5.022 0 0 1-2.603-2.094h.001ZM416.142 13.694a.617.617 0 0 0 .884 0 .624.624 0 0 0 .181-.442.624.624 0 0 0-.181-.442l-.871-.88c.495-.68.789-1.52.789-2.428 0-.908-.295-1.753-.794-2.434l.89-.901a.632.632 0 0 0 0-.884.617.617 0 0 0-.884 0l-.889.9a4.004 4.004 0 0 0-4.777.013l-.887-.898a.617.617 0 0 0-.883 0 .624.624 0 0 0 .001.883l.893.904a4.112 4.112 0 0 0-.783 2.417c0 .903.29 1.733.777 2.41l-.873.884a.63.63 0 0 0 0 .883.619.619 0 0 0 .884 0l.865-.876a4.009 4.009 0 0 0 4.792.013l.868.878h-.002Zm-2.998-4.192a.26.26 0 0 1-.257.265.262.262 0 0 1-.258-.265c0-.146.116-.265.258-.265a.26.26 0 0 1 .257.265Zm.959.561a1.35 1.35 0 0 0-.012-1.147.614.614 0 0 0 .411-.182l.752-.761a2.855 2.855 0 0 1 .005 3.05l-.771-.782a.616.616 0 0 0-.385-.179v.001Zm-.484-2.213a.628.628 0 0 0-.179.422 1.313 1.313 0 0 0-1.122.008.625.625 0 0 0-.179-.415l-.756-.766a2.761 2.761 0 0 1 2.99-.012l-.754.762v.001Zm-2.363.898c.112.114.26.178.418.183a1.344 1.344 0 0 0-.011 1.116.615.615 0 0 0-.393.18l-.767.777a2.858 2.858 0 0 1 .003-3.013l.748.757h.002Zm.899 2.363a.627.627 0 0 0 .174-.382 1.325 1.325 0 0 0 1.1.008.621.621 0 0 0 .176.389l.775.784a2.759 2.759 0 0 1-3.005-.01l.78-.789Z"/>
    <path d="M421.377 8.91h-.641c-.285-3.909-3.369-7.04-7.226-7.347V.908a.626.626 0 0 0-.623-.627.626.626 0 0 0-.623.627v.655c-3.857.307-6.94 3.438-7.227 7.346h-.641a.625.625 0 0 0-.622.627c0 .345.279.626.622.626h.647c.316 3.876 3.386 6.973 7.221 7.278v.655c0 .346.28.627.623.627a.626.626 0 0 0 .623-.627v-.655c3.835-.305 6.904-3.402 7.22-7.278h.647a.626.626 0 0 0 0-1.253Zm-8.49 5.622a.626.626 0 0 0-.623.627v1.025c-3.148-.299-5.663-2.837-5.973-6.022h.995a.626.626 0 0 0 0-1.253h-.999c.279-3.216 2.807-5.787 5.977-6.089v1.025c0 .346.28.627.623.627a.626.626 0 0 0 .623-.627V2.82c3.17.302 5.697 2.873 5.977 6.09h-1.012a.626.626 0 0 0 0 1.252h1.006c-.308 3.185-2.823 5.722-5.971 6.022v-1.025a.626.626 0 0 0-.623-.627ZM257.699 12.769c.279 1.722-.976 3.258-2.416 4.095-.139.046-.279.14-.418.233-.651.325-1.301.512-2.044.652-.418.046-.79.093-1.208.14-.605.046-1.208-.047-1.813.046 0 .046 0 .093-.046.093.094.093.14.186.233.233.651.372 1.347.512 2.091.651 1.58.233 3.16 0 4.6-.605 1.487-.698 2.742-1.722 3.624-3.165.605-1.024.883-2.094.93-3.258 0-1.768-.79-3.583-2.37-4.514a2.47 2.47 0 0 1 1.301.046c1.534.465 2.555 1.722 3.16 3.165.232.605.372 1.164.511 1.815.185.977.046 1.908.185 2.886.186.046.233-.14.325-.28.605-1.116.744-2.373.697-3.583-.093-1.815-.697-3.583-1.905-5.026-1.068-1.256-2.37-2.14-4.042-2.467-2.183-.419-4.553.373-5.669 2.28-.139-.745.046-1.489.418-2.14.744-1.256 1.905-2.048 3.252-2.513.605-.233 1.254-.326 1.905-.42.79-.093 1.58.047 2.37-.139a.47.47 0 0 0-.233-.279c-.836-.466-1.765-.605-2.694-.698a9.53 9.53 0 0 0-2.277.14c-2.276.465-4.182 1.676-5.343 3.677-.604 1.024-.883 2.094-.929 3.257-.046 1.768.79 3.63 2.37 4.514-1.626.372-3.067-.837-3.95-2.187-.093-.14-.14-.279-.233-.419-.418-.745-.604-1.536-.79-2.42-.185-.976-.046-1.907-.185-2.885h-.093c-.744.885-.836 2.095-.93 3.165-.046.884.094 1.676.279 2.56.186.744.465 1.395.836 2.046.465.838 1.069 1.49 1.813 2.141 1.719 1.396 3.995 1.955 6.086 1.256a5.022 5.022 0 0 0 2.603-2.094h-.001ZM226.726 12.816a4.008 4.008 0 0 0 4.792-.013l.864.876a.62.62 0 0 0 .885 0 .63.63 0 0 0 0-.883l-.873-.884a4.11 4.11 0 0 0 .776-2.41c0-.9-.291-1.738-.782-2.417l.893-.904a.63.63 0 0 0 .001-.883.617.617 0 0 0-.883 0l-.887.898a4.005 4.005 0 0 0-4.777-.013l-.889-.9a.617.617 0 0 0-.884 0 .63.63 0 0 0 0 .884l.89.9a4.107 4.107 0 0 0-.794 2.435c0 .91.293 1.747.789 2.428l-.871.88a.625.625 0 0 0 .884.884l.868-.878h-.002Zm2.387-3.579c.142 0 .258.119.258.265a.262.262 0 0 1-.258.265.26.26 0 0 1-.257-.265.26.26 0 0 1 .257-.265Zm-1.601 1.005-.771.78a2.866 2.866 0 0 1 .005-3.048l.752.761c.11.112.255.174.411.182a1.35 1.35 0 0 0-.012 1.147.616.616 0 0 0-.385.18v-.002Zm.115-3.154a2.761 2.761 0 0 1 2.99.012l-.756.766a.623.623 0 0 0-.179.415 1.326 1.326 0 0 0-.569-.13c-.204 0-.384.044-.553.122a.628.628 0 0 0-.179-.422l-.754-.762Zm3.866.904a2.858 2.858 0 0 1 .003 3.013l-.767-.777a.615.615 0 0 0-.392-.18 1.34 1.34 0 0 0-.012-1.116.61.61 0 0 0 .418-.183l.748-.757h.002Zm-.868 3.908a2.764 2.764 0 0 1-3.005.01l.775-.784a.623.623 0 0 0 .176-.389 1.326 1.326 0 0 0 1.1-.008c.013.14.069.276.174.382l.78.789Z"/>
    <path d="M220 9.536c0 .345.28.626.623.626h.646c.317 3.876 3.386 6.973 7.221 7.278v.655c0 .346.28.627.623.627a.626.626 0 0 0 .623-.627v-.655c3.835-.305 6.905-3.402 7.221-7.278h.646a.625.625 0 0 0 .623-.626.625.625 0 0 0-.623-.627h-.64c-.286-3.908-3.37-7.039-7.227-7.346V.908a.626.626 0 0 0-.623-.627.626.626 0 0 0-.623.627v.655c-3.857.307-6.94 3.438-7.225 7.346h-.641a.626.626 0 0 0-.623.627H220Zm8.49 5.623v1.025c-3.148-.299-5.663-2.837-5.971-6.022h1.006a.626.626 0 0 0 0-1.253h-1.012c.28-3.216 2.807-5.787 5.977-6.089v1.025c0 .346.28.627.623.627a.626.626 0 0 0 .623-.627V2.82c3.17.302 5.698 2.873 5.977 6.09h-.999a.626.626 0 0 0 0 1.252h.994c-.308 3.185-2.823 5.722-5.972 6.022v-1.025a.626.626 0 0 0-.623-.627.626.626 0 0 0-.623.627Z"/>
  </g>
  <g clip-path="url(#b)" fill="#fff">
    <path d="M101.001 18.462c-4.505 0-8.819-.77-12.147-2.167-3.915-1.643-6.071-3.95-6.071-6.495s2.342-5.013 6.426-6.64C92.48 1.858 96.667 1.14 101 1.14c4.332 0 8.519.718 11.79 2.022 4.083 1.626 6.426 4.045 6.426 6.64 0 2.593-2.156 4.851-6.071 6.494-3.328 1.397-7.641 2.167-12.145 2.167h.001Zm0-16.027c-4.172 0-8.19.685-11.313 1.93-3.567 1.42-5.612 3.4-5.612 5.435 0 2.035 1.924 3.893 5.278 5.3 3.173 1.332 7.309 2.066 11.646 2.066 4.337 0 8.472-.734 11.645-2.066 3.354-1.407 5.278-3.339 5.278-5.3 0-1.96-2.045-4.015-5.611-5.435-3.122-1.245-7.139-1.93-11.311-1.93Z"/>
    <path d="M101.001 6.386c-2.677 0-5.254-.263-7.66-.784a26.14 26.14 0 0 1-4.13-1.237L87.7 3.763l1.51-.601c3.271-1.304 7.46-2.022 11.792-2.022s8.519.718 11.79 2.022l1.511.602-1.511.602c-1.249.498-2.64.914-4.131 1.237-2.403.52-4.98.784-7.659.784h-.001Zm-9.594-2.623c.703.215 1.44.407 2.206.572 2.316.502 4.802.756 7.387.756s5.072-.254 7.385-.755a27.55 27.55 0 0 0 2.207-.573c-2.814-.861-6.151-1.328-9.592-1.328-3.442 0-6.778.466-9.594 1.328h.001ZM101.001 18.462c-4.505 0-8.818-.77-12.146-2.167l-1.424-.598 1.424-.597c1.284-.54 2.723-.989 4.278-1.337 2.462-.55 5.109-.83 7.868-.83 2.759 0 5.404.28 7.865.83 1.554.347 2.994.797 4.28 1.337l1.423.597-1.423.598c-3.328 1.397-7.641 2.167-12.145 2.167Zm-10.038-2.765c2.905.952 6.401 1.468 10.038 1.468 3.636 0 7.131-.516 10.036-1.468a26.349 26.349 0 0 0-2.453-.67c-2.369-.53-4.92-.798-7.584-.798-2.664 0-5.217.268-7.585.799-.859.192-1.678.415-2.453.67h.001Z"/>
    <path d="M101.001 18.462c-5.557 0-10.077-3.886-10.077-8.66 0-4.776 4.52-8.661 10.077-8.661 5.556 0 10.077 3.885 10.077 8.66s-4.521 8.661-10.077 8.661Zm0-16.027c-4.844 0-8.784 3.305-8.784 7.365 0 4.061 3.94 7.366 8.784 7.366 4.843 0 8.783-3.305 8.783-7.366 0-4.06-3.94-7.365-8.783-7.365Z"/>
    <path d="M101.647 1.788h-1.293v16.026h1.293V1.788Z"/>
    <path d="M118.57 9.152H83.43v1.296h35.14V9.152ZM60.84 7.187c.078 0 .139.022.183.066a.25.25 0 0 1 .066.184V9.39a.247.247 0 0 1-.066.183.244.244 0 0 1-.183.066h-3.99a.25.25 0 0 1-.183-.066.247.247 0 0 1-.066-.183v-.71c0-.077.022-.138.066-.182a.248.248 0 0 1 .183-.066h1.125l.816-1.044a.57.57 0 0 1 .183-.146.49.49 0 0 1 .225-.054h1.642v-.001Zm-2.258 5.649a.246.246 0 0 1-.182-.066c-.046-.045-.067-.106-.067-.184v-1.46a.82.82 0 0 1 .15-.45l.559-.719a.474.474 0 0 1 .174-.146.49.49 0 0 1 .225-.054h1.392a.25.25 0 0 1 .183.066.25.25 0 0 1 .067.184v2.578a.25.25 0 0 1-.067.184.249.249 0 0 1-.183.066h-2.25v.001ZM61.74 7.437a.25.25 0 0 1 .066-.184.248.248 0 0 1 .184-.066h6.73a.502.502 0 0 1 .4.2l.809 1.044h1.14a.25.25 0 0 1 .184.066.248.248 0 0 1 .066.183v.71a.247.247 0 0 1-.066.182.245.245 0 0 1-.184.067h-6.09a.502.502 0 0 1-.4-.2l-.791-1.01h-1.8a.25.25 0 0 1-.183-.067.246.246 0 0 1-.066-.184v-.742l.001.001Zm.25 5.399a.25.25 0 0 1-.184-.066.25.25 0 0 1-.066-.184v-2.578a.25.25 0 0 1 .066-.184c.044-.045.106-.066.184-.066h2.182a.25.25 0 0 1 .184.066.25.25 0 0 1 .066.184v.376h4.299c.078 0 .152.018.224.053a.558.558 0 0 1 .184.147l.8 1.01h1.14a.25.25 0 0 1 .184.066.25.25 0 0 1 .066.184v.742a.25.25 0 0 1-.066.184.249.249 0 0 1-.184.066h-9.08ZM76.893 7.187c.1 0 .15.03.15.091a.231.231 0 0 1-.042.11l-3.74 5.248a.496.496 0 0 1-.392.2h-.974c-.1 0-.15-.03-.15-.091 0-.039.013-.075.041-.11l3.74-5.248a.492.492 0 0 1 .392-.2h.974ZM128.251 7.187c.1 0 .15.03.15.091a.229.229 0 0 1-.041.11l-3.74 5.248a.496.496 0 0 1-.392.2h-.975c-.1 0-.15-.03-.15-.091 0-.039.014-.075.042-.11l3.74-5.248a.492.492 0 0 1 .391-.2h.975ZM128.826 7.437c0-.078.022-.138.066-.184a.249.249 0 0 1 .184-.066h6.731a.501.501 0 0 1 .399.2l.809 1.044h1.14a.25.25 0 0 1 .184.066.245.245 0 0 1 .066.183v.71a.248.248 0 0 1-.066.182c-.044.045-.106.067-.184.067h-6.09a.501.501 0 0 1-.399-.2l-.792-1.01h-1.799a.25.25 0 0 1-.184-.067.25.25 0 0 1-.066-.184v-.742l.001.001Zm.25 5.399a.25.25 0 0 1-.184-.066.25.25 0 0 1-.066-.184v-2.578c0-.078.022-.138.066-.184a.249.249 0 0 1 .184-.066h2.182a.25.25 0 0 1 .184.066.25.25 0 0 1 .066.184v.376h4.299c.077 0 .152.018.224.053a.55.55 0 0 1 .184.147l.8 1.01h1.14a.25.25 0 0 1 .184.066.251.251 0 0 1 .066.184v.742a.25.25 0 0 1-.066.184.249.249 0 0 1-.184.066h-9.08.001ZM139.056 7.437c0-.078.022-.138.066-.184a.249.249 0 0 1 .184-.066h6.73a.502.502 0 0 1 .4.2l.808 1.044h1.141c.078 0 .138.022.184.066a.249.249 0 0 1 .066.183v.71a.248.248 0 0 1-.066.182.247.247 0 0 1-.184.067h-6.09a.502.502 0 0 1-.4-.2l-.791-1.01h-1.799a.25.25 0 0 1-.184-.067c-.045-.044-.066-.106-.066-.184v-.742l.001.001Zm.25 5.399a.25.25 0 0 1-.184-.066.25.25 0 0 1-.066-.184v-2.578c0-.078.022-.138.066-.184.044-.045.106-.066.184-.066h2.182c.078 0 .138.022.183.066.046.045.067.106.067.184v.376h4.298c.078 0 .153.018.225.053a.56.56 0 0 1 .184.147l.799 1.01h1.141c.078 0 .138.022.184.066a.251.251 0 0 1 .066.184v.742a.25.25 0 0 1-.066.184.25.25 0 0 1-.184.066h-9.08.001ZM164.301 12.769c-.279 1.722.976 3.258 2.416 4.095.139.046.279.14.418.233.651.325 1.301.512 2.044.652.418.046.79.093 1.208.14.605.046 1.208-.047 1.813.046 0 .046 0 .093.046.093-.094.093-.14.186-.233.233-.651.372-1.347.512-2.091.651-1.58.233-3.16 0-4.6-.605-1.487-.698-2.742-1.722-3.624-3.165-.605-1.024-.883-2.094-.93-3.258 0-1.768.79-3.583 2.37-4.514a2.47 2.47 0 0 0-1.301.046c-1.534.465-2.555 1.722-3.16 3.165-.232.605-.372 1.164-.511 1.815-.185.977-.046 1.908-.185 2.886-.186.046-.233-.14-.325-.28-.605-1.116-.744-2.373-.697-3.583.093-1.815.697-3.583 1.905-5.026 1.068-1.256 2.37-2.14 4.042-2.467 2.183-.419 4.553.373 5.669 2.28.139-.745-.046-1.489-.418-2.14-.744-1.256-1.905-2.048-3.252-2.513-.605-.233-1.254-.326-1.905-.42-.79-.093-1.58.047-2.37-.139a.47.47 0 0 1 .233-.279c.836-.466 1.765-.605 2.694-.698a9.53 9.53 0 0 1 2.277.14c2.276.465 4.181 1.676 5.343 3.677.604 1.024.883 2.094.929 3.257.046 1.768-.79 3.63-2.37 4.514 1.626.372 3.067-.837 3.95-2.187.093-.14.14-.279.233-.419.418-.745.604-1.536.79-2.42.185-.976.046-1.907.185-2.885h.093c.744.885.836 2.095.93 3.165.046.884-.094 1.676-.279 2.56a7.929 7.929 0 0 1-.836 2.046c-.465.838-1.069 1.49-1.813 2.141-1.719 1.396-3.995 1.955-6.086 1.256a5.022 5.022 0 0 1-2.603-2.094h.001ZM196.142 13.694a.617.617 0 0 0 .884 0 .624.624 0 0 0 .181-.442.624.624 0 0 0-.181-.442l-.871-.88c.495-.68.789-1.52.789-2.428 0-.908-.295-1.753-.794-2.434l.89-.901a.632.632 0 0 0 0-.884.617.617 0 0 0-.884 0l-.889.9a4.004 4.004 0 0 0-4.777.013l-.887-.898a.617.617 0 0 0-.883 0 .624.624 0 0 0 .001.883l.893.904a4.112 4.112 0 0 0-.783 2.417c0 .903.29 1.733.777 2.41l-.873.884a.63.63 0 0 0 0 .883.619.619 0 0 0 .884 0l.865-.876a4.009 4.009 0 0 0 4.792.013l.868.878h-.002Zm-2.998-4.192a.26.26 0 0 1-.257.265.262.262 0 0 1-.258-.265c0-.146.116-.265.258-.265a.26.26 0 0 1 .257.265Zm.959.561a1.35 1.35 0 0 0-.012-1.147.614.614 0 0 0 .411-.182l.752-.761a2.855 2.855 0 0 1 .005 3.05l-.771-.782a.616.616 0 0 0-.385-.179v.001Zm-.484-2.213a.628.628 0 0 0-.179.422 1.313 1.313 0 0 0-1.122.008.625.625 0 0 0-.179-.415l-.756-.766a2.761 2.761 0 0 1 2.99-.012l-.754.762v.001Zm-2.363.898c.112.114.26.178.418.183a1.344 1.344 0 0 0-.011 1.116.615.615 0 0 0-.393.18l-.767.777a2.858 2.858 0 0 1 .003-3.013l.748.757h.002Zm.899 2.363a.627.627 0 0 0 .174-.382 1.325 1.325 0 0 0 1.1.008.621.621 0 0 0 .176.389l.775.784a2.759 2.759 0 0 1-3.005-.01l.78-.789Z"/>
    <path d="M201.377 8.91h-.641c-.285-3.909-3.369-7.04-7.226-7.347V.908a.626.626 0 0 0-.623-.627.626.626 0 0 0-.623.627v.655c-3.857.307-6.94 3.438-7.227 7.346h-.641a.625.625 0 0 0-.622.627c0 .345.279.626.622.626h.647c.316 3.876 3.386 6.973 7.221 7.278v.655c0 .346.28.627.623.627a.626.626 0 0 0 .623-.627v-.655c3.835-.305 6.904-3.402 7.22-7.278h.647a.626.626 0 0 0 0-1.253Zm-8.49 5.622a.626.626 0 0 0-.623.627v1.025c-3.148-.299-5.663-2.837-5.973-6.022h.995a.626.626 0 0 0 0-1.253h-.999c.279-3.216 2.807-5.787 5.977-6.089v1.025c0 .346.28.627.623.627a.626.626 0 0 0 .623-.627V2.82c3.17.302 5.697 2.873 5.977 6.09h-1.012a.626.626 0 0 0 0 1.252h1.006c-.308 3.185-2.823 5.722-5.971 6.022v-1.025a.626.626 0 0 0-.623-.627ZM37.699 12.769c.279 1.722-.975 3.258-2.416 4.095-.14.046-.279.14-.418.233-.65.325-1.301.512-2.044.652-.418.046-.79.093-1.208.14-.605.046-1.208-.047-1.813.046 0 .046 0 .093-.046.093.094.093.14.186.233.233.65.372 1.347.512 2.091.651 1.58.233 3.16 0 4.6-.605 1.487-.698 2.742-1.722 3.624-3.165.605-1.024.883-2.094.93-3.258 0-1.768-.79-3.583-2.37-4.514a2.471 2.471 0 0 1 1.3.046c1.535.465 2.556 1.722 3.16 3.165.233.605.372 1.164.512 1.815.185.977.046 1.908.185 2.886.186.046.233-.14.325-.28.605-1.116.744-2.373.697-3.583-.093-1.815-.697-3.583-1.905-5.026-1.068-1.256-2.37-2.14-4.042-2.467-2.183-.419-4.553.373-5.669 2.28-.139-.745.047-1.489.418-2.14.744-1.256 1.905-2.048 3.252-2.513.605-.233 1.255-.326 1.905-.42.79-.093 1.58.047 2.37-.139a.473.473 0 0 0-.233-.279C40.301.25 39.372.11 38.443.017a9.528 9.528 0 0 0-2.277.14c-2.276.465-4.182 1.676-5.343 3.677-.605 1.024-.883 2.094-.93 3.257-.045 1.768.79 3.63 2.37 4.514-1.625.372-3.066-.837-3.95-2.187-.092-.14-.139-.279-.232-.419-.418-.745-.604-1.536-.79-2.42-.185-.976-.046-1.907-.185-2.885h-.093c-.744.885-.836 2.095-.93 3.165-.046.884.094 1.676.279 2.56.186.744.465 1.395.836 2.046.465.838 1.069 1.49 1.813 2.141 1.719 1.396 3.995 1.955 6.086 1.256a5.02 5.02 0 0 0 2.603-2.094h-.001ZM6.726 12.816a4.008 4.008 0 0 0 4.792-.013l.864.876a.617.617 0 0 0 .885 0 .63.63 0 0 0 0-.883l-.873-.884a4.11 4.11 0 0 0 .777-2.41c0-.9-.292-1.738-.783-2.417l.893-.904a.628.628 0 0 0-.441-1.068.614.614 0 0 0-.441.185l-.887.898a4.004 4.004 0 0 0-4.777-.013l-.89-.9a.617.617 0 0 0-.883 0 .632.632 0 0 0 0 .884l.89.9a4.109 4.109 0 0 0-.794 2.435c0 .91.293 1.747.789 2.428l-.87.88a.624.624 0 0 0 0 .884.617.617 0 0 0 .883 0l.868-.878h-.002Zm2.387-3.579c.142 0 .258.119.258.265a.261.261 0 0 1-.258.265.261.261 0 0 1-.257-.265c0-.146.115-.265.257-.265Zm-1.6 1.005-.772.78a2.859 2.859 0 0 1 .005-3.048l.752.761c.11.112.255.174.411.182a1.343 1.343 0 0 0-.012 1.147.616.616 0 0 0-.385.18v-.002Zm.114-3.154a2.759 2.759 0 0 1 2.99.012l-.756.766a.624.624 0 0 0-.179.415 1.327 1.327 0 0 0-.569-.13c-.204 0-.384.044-.553.122a.625.625 0 0 0-.18-.422l-.753-.762Zm3.866.904a2.858 2.858 0 0 1 .003 3.013l-.767-.777a.614.614 0 0 0-.393-.18 1.36 1.36 0 0 0-.011-1.116.612.612 0 0 0 .418-.183l.748-.757h.002Zm-.868 3.908a2.765 2.765 0 0 1-3.005.01l.775-.784a.627.627 0 0 0 .176-.389 1.326 1.326 0 0 0 1.1-.008c.013.14.069.276.174.382l.78.789Z"/>
    <path d="M0 9.536c0 .345.28.626.623.626h.646c.317 3.876 3.386 6.973 7.221 7.278v.655c0 .346.28.627.623.627a.626.626 0 0 0 .623-.627v-.655c3.835-.305 6.905-3.402 7.22-7.278h.648a.626.626 0 0 0 .622-.626.626.626 0 0 0-.622-.627h-.642c-.285-3.908-3.369-7.039-7.226-7.346V.908A.626.626 0 0 0 9.113.28a.626.626 0 0 0-.623.627v.655C4.633 1.87 1.55 5.001 1.265 8.91H.624A.626.626 0 0 0 0 9.536H0Zm8.49 5.623v1.025c-3.148-.299-5.663-2.837-5.971-6.022h1.006a.626.626 0 0 0 0-1.253H2.513C2.793 5.693 5.32 3.122 8.49 2.82v1.025c0 .346.28.627.623.627a.626.626 0 0 0 .623-.627V2.82c3.17.302 5.698 2.873 5.977 6.09h-1a.626.626 0 0 0-.622.626c0 .345.28.626.623.626h.994c-.308 3.185-2.823 5.722-5.972 6.022v-1.025a.626.626 0 0 0-.623-.627.626.626 0 0 0-.623.627Z"/>
  </g>
  <defs>
    <clipPath id="a">
      <path fill="#fff" transform="translate(220)" d="M0 0h202v19H0z"/>
    </clipPath>
    <clipPath id="b">
      <path fill="#fff" d="M0 0h202v19H0z"/>
    </clipPath>
  </defs>
</svg>
