<svg aria-hidden="true" style="position: absolute; width: 0; height: 0; overflow: hidden;" version="1.1" xmlns="http://www.w3.org/2000/svg" xmlns:xlink="http://www.w3.org/1999/xlink">
<defs>
<symbol id="icon-who-is-full-icon" viewBox="0 0 711 32">
<path d="M540.633 31.094c-7.587 0-14.853-1.295-20.456-3.649-6.595-2.767-10.227-6.653-10.227-10.939s3.944-8.444 10.823-11.182c5.509-2.197 12.561-3.406 19.859-3.406 7.296 0 14.348 1.209 19.857 3.406 6.877 2.738 10.823 6.813 10.823 11.182s-3.631 8.172-10.225 10.939c-5.605 2.352-12.869 3.649-20.455 3.649h0.002zM540.633 4.101c-7.027 0-13.794 1.154-19.053 3.25-6.008 2.391-9.452 5.727-9.452 9.154s3.24 6.556 8.889 8.926c5.344 2.244 12.31 3.479 19.614 3.479s14.269-1.235 19.613-3.479c5.649-2.37 8.889-5.623 8.889-8.926s-3.444-6.763-9.45-9.154c-5.258-2.096-12.024-3.25-19.050-3.25z"></path>
<path d="M540.633 10.756c-4.509 0-8.849-0.444-12.901-1.321-2.509-0.543-4.851-1.243-6.957-2.083l-2.545-1.013 2.545-1.013c5.509-2.197 12.563-3.406 19.86-3.406 7.296 0 14.348 1.209 19.857 3.406l2.545 1.015-2.545 1.013c-2.104 0.838-4.446 1.54-6.957 2.083-4.047 0.877-8.387 1.321-12.899 1.321l-0.002-0.002zM524.475 6.338c1.182 0.362 2.427 0.684 3.715 0.963 3.901 0.845 8.088 1.273 12.441 1.273s8.542-0.428 12.438-1.271c1.292-0.28 2.535-0.603 3.717-0.965-4.739-1.451-10.36-2.237-16.155-2.237-5.797 0-11.416 0.785-16.158 2.237h0.002z"></path>
<path d="M540.633 31.094c-7.587 0-14.851-1.295-20.456-3.649l-2.398-1.007 2.398-1.007c2.163-0.908 4.586-1.665 7.205-2.252 4.147-0.927 8.605-1.397 13.251-1.397s9.101 0.47 13.246 1.397c2.617 0.585 5.043 1.342 7.208 2.252l2.397 1.007-2.397 1.007c-5.605 2.352-12.869 3.649-20.455 3.649zM523.727 26.438c4.893 1.603 10.781 2.472 16.906 2.472 6.124 0 12.010-0.869 16.903-2.472-1.304-0.428-2.685-0.804-4.131-1.128-3.99-0.893-8.286-1.346-12.773-1.346s-8.787 0.452-12.775 1.346c-1.447 0.324-2.826 0.7-4.131 1.128h0.002z"></path>
<path d="M540.633 31.094c-9.359 0-16.972-6.544-16.972-14.586s7.613-14.586 16.972-14.586c9.357 0 16.972 6.544 16.972 14.586s-7.614 14.586-16.972 14.586zM540.633 4.101c-8.158 0-14.794 5.565-14.794 12.404s6.636 12.404 14.794 12.404c8.157 0 14.792-5.565 14.792-12.404s-6.636-12.404-14.792-12.404z"></path>
<path d="M541.721 3.011h-2.178v26.992h2.178v-26.992z"></path>
<path d="M570.223 15.414h-59.181v2.182h59.181v-2.182z"></path>
<path d="M472.994 12.104c0.131 0 0.234 0.037 0.308 0.112s0.111 0.178 0.111 0.31v3.289c0 0.131-0.037 0.233-0.111 0.308-0.074 0.076-0.179 0.112-0.308 0.112h-6.72c-0.13 0-0.232-0.037-0.308-0.112-0.074-0.075-0.111-0.177-0.111-0.308v-1.195c0-0.131 0.037-0.233 0.111-0.308s0.179-0.112 0.308-0.112h1.895l1.374-1.757c0.084-0.102 0.187-0.185 0.308-0.246s0.248-0.091 0.379-0.091l2.764-0.002zM469.191 21.619c-0.131 0-0.232-0.037-0.307-0.112-0.077-0.075-0.113-0.178-0.113-0.31v-2.459c0-0.131 0.024-0.264 0.071-0.4 0.045-0.136 0.108-0.254 0.182-0.358l0.941-1.209c0.074-0.104 0.172-0.185 0.293-0.246s0.248-0.091 0.379-0.091h2.344c0.131 0 0.232 0.037 0.308 0.112s0.113 0.178 0.113 0.31v4.341c0 0.131-0.037 0.235-0.113 0.31-0.074 0.075-0.177 0.112-0.308 0.112l-3.791 0.002z"></path>
<path d="M474.509 12.526c0-0.131 0.037-0.233 0.111-0.31 0.074-0.075 0.179-0.112 0.31-0.112h11.336c0.13 0 0.256 0.031 0.379 0.091 0.121 0.062 0.219 0.143 0.293 0.246l1.363 1.757h1.92c0.131 0 0.234 0.037 0.31 0.112 0.074 0.075 0.111 0.178 0.111 0.308v1.195c0 0.131-0.037 0.233-0.111 0.308-0.074 0.076-0.179 0.112-0.31 0.112h-10.257c-0.13 0-0.256-0.031-0.377-0.091-0.121-0.062-0.221-0.143-0.295-0.246l-1.334-1.7h-3.030c-0.131 0-0.234-0.037-0.31-0.112s-0.111-0.178-0.111-0.31v-1.25l0.002 0.002zM474.931 21.619c-0.131 0-0.234-0.037-0.31-0.112-0.074-0.075-0.111-0.178-0.111-0.31v-4.341c0-0.131 0.037-0.233 0.111-0.31s0.179-0.112 0.31-0.112h3.675c0.131 0 0.234 0.037 0.31 0.112 0.074 0.075 0.111 0.178 0.111 0.31v0.632h7.24c0.13 0 0.256 0.031 0.379 0.091 0.121 0.062 0.224 0.143 0.308 0.246l1.347 1.701h1.92c0.131 0 0.234 0.037 0.31 0.112 0.074 0.076 0.111 0.178 0.111 0.31v1.25c0 0.131-0.037 0.235-0.111 0.31s-0.179 0.112-0.31 0.112h-15.291z"></path>
<path d="M500.030 12.104c0.168 0 0.253 0.052 0.253 0.154 0 0.047-0.025 0.109-0.069 0.183l-6.301 8.84c-0.074 0.102-0.172 0.185-0.288 0.246s-0.241 0.091-0.372 0.091h-1.64c-0.168 0-0.253-0.052-0.253-0.154 0-0.065 0.022-0.126 0.069-0.183l6.299-8.84c0.076-0.102 0.17-0.185 0.286-0.246 0.118-0.062 0.243-0.091 0.374-0.091h1.642z"></path>
<path d="M586.528 12.104c0.168 0 0.253 0.052 0.253 0.154 0 0.047-0.024 0.109-0.069 0.183l-6.299 8.84c-0.074 0.102-0.172 0.185-0.288 0.246-0.118 0.062-0.243 0.091-0.372 0.091h-1.642c-0.168 0-0.253-0.052-0.253-0.154 0-0.065 0.024-0.126 0.071-0.183l6.299-8.84c0.074-0.102 0.17-0.185 0.286-0.246s0.241-0.091 0.372-0.091h1.642z"></path>
<path d="M587.496 12.526c0-0.131 0.037-0.233 0.111-0.31 0.074-0.075 0.179-0.112 0.31-0.112h11.336c0.13 0 0.256 0.031 0.377 0.091 0.123 0.062 0.221 0.143 0.295 0.246l1.363 1.757h1.92c0.131 0 0.234 0.037 0.31 0.112s0.111 0.178 0.111 0.308v1.195c0 0.131-0.037 0.233-0.111 0.308-0.074 0.076-0.179 0.112-0.31 0.112h-10.257c-0.13 0-0.256-0.031-0.377-0.091-0.123-0.062-0.221-0.143-0.295-0.246l-1.334-1.7h-3.030c-0.131 0-0.234-0.037-0.31-0.112-0.074-0.075-0.111-0.178-0.111-0.31v-1.25l0.002 0.002zM587.917 21.619c-0.131 0-0.234-0.037-0.31-0.112-0.074-0.075-0.111-0.178-0.111-0.31v-4.341c0-0.131 0.037-0.233 0.111-0.31 0.074-0.075 0.179-0.112 0.31-0.112h3.675c0.131 0 0.234 0.037 0.31 0.112 0.074 0.075 0.111 0.178 0.111 0.31v0.632h7.24c0.13 0 0.256 0.031 0.377 0.091 0.123 0.062 0.226 0.143 0.31 0.246l1.347 1.701h1.92c0.131 0 0.234 0.037 0.31 0.112 0.074 0.076 0.111 0.178 0.111 0.31v1.25c0 0.131-0.037 0.235-0.111 0.31s-0.179 0.112-0.31 0.112h-15.291z"></path>
<path d="M604.726 12.526c0-0.131 0.037-0.233 0.111-0.31 0.074-0.075 0.179-0.112 0.31-0.112h11.335c0.131 0 0.258 0.031 0.379 0.091 0.121 0.062 0.221 0.143 0.295 0.246l1.361 1.757h1.922c0.131 0 0.232 0.037 0.31 0.112 0.074 0.075 0.111 0.178 0.111 0.308v1.195c0 0.131-0.037 0.233-0.111 0.308-0.076 0.076-0.179 0.112-0.31 0.112h-10.257c-0.131 0-0.258-0.031-0.379-0.091-0.121-0.062-0.219-0.143-0.295-0.246l-1.332-1.7h-3.030c-0.131 0-0.234-0.037-0.31-0.112s-0.111-0.178-0.111-0.31v-1.25l0.002 0.002zM605.147 21.619c-0.131 0-0.234-0.037-0.31-0.112-0.074-0.075-0.111-0.178-0.111-0.31v-4.341c0-0.131 0.037-0.233 0.111-0.31s0.179-0.112 0.31-0.112h3.675c0.131 0 0.232 0.037 0.308 0.112 0.077 0.075 0.113 0.178 0.113 0.31v0.632h7.239c0.131 0 0.258 0.031 0.379 0.091 0.121 0.062 0.226 0.143 0.31 0.246l1.346 1.701h1.922c0.131 0 0.232 0.037 0.31 0.112 0.074 0.076 0.111 0.178 0.111 0.31v1.25c0 0.131-0.037 0.235-0.111 0.31-0.076 0.075-0.179 0.112-0.31 0.112h-15.291z"></path>
<path d="M647.244 21.505c-0.47 2.9 1.644 5.487 4.069 6.898 0.234 0.078 0.47 0.235 0.704 0.392 1.096 0.548 2.191 0.862 3.443 1.097 0.704 0.078 1.331 0.157 2.035 0.235 1.019 0.078 2.035-0.078 3.053 0.078 0 0.078 0 0.157 0.077 0.157-0.158 0.157-0.236 0.313-0.392 0.392-1.096 0.627-2.269 0.862-3.522 1.097-2.661 0.392-5.322 0-7.747-1.020-2.504-1.175-4.618-2.9-6.104-5.33-1.019-1.725-1.487-3.527-1.566-5.487 0-2.978 1.331-6.035 3.992-7.603-0.704-0.157-1.487-0.157-2.191 0.078-2.584 0.783-4.303 2.9-5.322 5.33-0.391 1.020-0.627 1.96-0.861 3.057-0.312 1.645-0.077 3.213-0.312 4.86-0.313 0.078-0.392-0.235-0.547-0.47-1.019-1.88-1.253-3.998-1.174-6.035 0.157-3.057 1.174-6.035 3.208-8.465 1.799-2.115 3.992-3.605 6.808-4.155 3.677-0.705 7.668 0.627 9.548 3.84 0.234-1.255-0.077-2.508-0.704-3.605-1.253-2.115-3.208-3.448-5.477-4.233-1.019-0.392-2.112-0.548-3.208-0.705-1.331-0.157-2.661 0.078-3.992-0.235 0.077-0.235 0.234-0.392 0.392-0.47 1.408-0.785 2.973-1.020 4.537-1.175 1.253-0.078 2.504 0 3.835 0.235 3.833 0.783 7.042 2.822 8.999 6.192 1.017 1.725 1.487 3.527 1.565 5.486 0.077 2.978-1.331 6.113-3.992 7.603 2.739 0.627 5.165-1.41 6.653-3.683 0.157-0.235 0.236-0.47 0.392-0.705 0.704-1.255 1.017-2.587 1.331-4.075 0.312-1.645 0.077-3.213 0.312-4.86h0.157c1.253 1.49 1.408 3.527 1.566 5.33 0.077 1.49-0.158 2.822-0.47 4.31-0.313 1.255-0.783 2.351-1.408 3.448-0.783 1.41-1.8 2.508-3.053 3.605-2.895 2.35-6.728 3.292-10.25 2.115-1.8-0.627-3.365-1.88-4.384-3.527l0.002 0.002z"></path>
<path d="M700.871 23.063c0.199 0.201 0.463 0.311 0.744 0.311s0.546-0.11 0.744-0.311c0.197-0.199 0.305-0.464 0.305-0.744s-0.108-0.545-0.305-0.744l-1.467-1.483c0.834-1.146 1.329-2.56 1.329-4.088s-0.497-2.952-1.337-4.1l1.499-1.517c0.404-0.41 0.404-1.078 0-1.488-0.199-0.201-0.463-0.311-0.744-0.311s-0.546 0.11-0.744 0.311l-1.497 1.516c-1.127-0.828-2.511-1.32-4.008-1.32s-2.905 0.498-4.037 1.341l-1.494-1.512c-0.199-0.201-0.463-0.311-0.743-0.311s-0.546 0.11-0.744 0.311c-0.197 0.199-0.305 0.464-0.305 0.744s0.109 0.546 0.307 0.744l1.504 1.522c-0.827 1.143-1.319 2.55-1.319 4.071s0.488 2.918 1.309 4.059l-1.47 1.488c-0.406 0.41-0.406 1.078 0 1.488 0.2 0.201 0.463 0.311 0.744 0.311 0.283 0 0.546-0.11 0.744-0.311l1.457-1.475c1.135 0.846 2.535 1.349 4.051 1.349 1.514 0 2.892-0.494 4.020-1.328l1.462 1.478h-0.003zM695.821 16.004c0 0.246-0.194 0.446-0.433 0.446s-0.435-0.199-0.435-0.446c0-0.246 0.195-0.446 0.435-0.446s0.433 0.199 0.433 0.446zM697.437 16.949c0.131-0.289 0.207-0.608 0.207-0.945s-0.084-0.687-0.227-0.987c0.263-0.013 0.507-0.118 0.692-0.306l1.267-1.282c0.468 0.746 0.746 1.628 0.746 2.574s-0.275 1.82-0.738 2.561l-1.299-1.315c-0.175-0.177-0.403-0.279-0.648-0.301v0.002zM696.621 13.222c-0.187 0.191-0.293 0.443-0.301 0.71-0.285-0.131-0.598-0.206-0.931-0.206s-0.667 0.079-0.958 0.219c-0.012-0.263-0.115-0.509-0.301-0.699l-1.273-1.29c0.733-0.473 1.6-0.752 2.533-0.752 0.931 0 1.775 0.271 2.503 0.733l-1.27 1.284v0.002zM692.642 14.734c0.189 0.191 0.438 0.298 0.704 0.308-0.136 0.292-0.214 0.618-0.214 0.96s0.071 0.639 0.195 0.919c-0.249 0.020-0.482 0.122-0.662 0.303l-1.292 1.308c-0.453-0.736-0.721-1.602-0.721-2.53s0.268-1.806 0.726-2.543l1.26 1.276h0.003zM694.156 18.714c0.175-0.18 0.271-0.408 0.293-0.644 0.288 0.133 0.605 0.209 0.94 0.209s0.633-0.071 0.913-0.196c0.020 0.246 0.121 0.478 0.296 0.655l1.305 1.321c-0.729 0.467-1.59 0.741-2.515 0.741s-1.811-0.28-2.547-0.759l1.314-1.328z"></path>
<path d="M709.688 15.005h-1.080c-0.48-6.582-5.674-11.855-12.17-12.372v-1.104c0-0.582-0.472-1.055-1.049-1.055s-1.049 0.473-1.049 1.055v1.104c-6.496 0.517-11.688 5.79-12.172 12.372h-1.080c-0.578 0-1.048 0.473-1.048 1.055s0.47 1.055 1.048 1.055h1.090c0.532 6.528 5.703 11.743 12.162 12.257v1.104c0 0.582 0.472 1.055 1.049 1.055s1.049-0.473 1.049-1.055v-1.104c6.459-0.514 11.628-5.729 12.16-12.257h1.090c0.578 0 1.049-0.473 1.049-1.055s-0.472-1.055-1.049-1.055zM695.389 24.475c-0.578 0-1.049 0.473-1.049 1.055v1.726c-5.302-0.503-9.538-4.777-10.060-10.141h1.676c0.578 0 1.049-0.473 1.049-1.055s-0.472-1.055-1.049-1.055h-1.683c0.47-5.416 4.728-9.748 10.067-10.255v1.726c0 0.582 0.472 1.055 1.049 1.055s1.049-0.473 1.049-1.055v-1.726c5.339 0.507 9.595 4.839 10.067 10.255h-1.704c-0.578 0-1.049 0.473-1.049 1.055s0.472 1.055 1.049 1.055h1.694c-0.519 5.364-4.755 9.637-10.056 10.141v-1.726c0-0.582-0.472-1.055-1.049-1.055z"></path>
<path d="M434.019 21.505c0.47 2.9-1.644 5.487-4.069 6.898-0.234 0.078-0.47 0.235-0.704 0.392-1.096 0.548-2.191 0.862-3.443 1.097-0.704 0.078-1.331 0.157-2.035 0.235-1.019 0.078-2.035-0.078-3.053 0.078 0 0.078 0 0.157-0.077 0.157 0.158 0.157 0.236 0.313 0.392 0.392 1.096 0.627 2.269 0.862 3.522 1.097 2.661 0.392 5.322 0 7.747-1.020 2.504-1.175 4.618-2.9 6.104-5.33 1.019-1.725 1.487-3.527 1.566-5.487 0-2.978-1.331-6.035-3.992-7.603 0.704-0.157 1.487-0.157 2.191 0.078 2.584 0.783 4.303 2.9 5.322 5.33 0.391 1.020 0.627 1.96 0.861 3.057 0.312 1.645 0.077 3.213 0.312 4.86 0.313 0.078 0.392-0.235 0.547-0.47 1.019-1.88 1.253-3.998 1.174-6.035-0.157-3.057-1.174-6.035-3.208-8.465-1.799-2.115-3.992-3.605-6.808-4.155-3.677-0.705-7.668 0.627-9.548 3.84-0.234-1.255 0.077-2.508 0.704-3.605 1.253-2.115 3.208-3.448 5.477-4.233 1.019-0.392 2.112-0.548 3.208-0.705 1.331-0.157 2.661 0.078 3.992-0.235-0.077-0.235-0.234-0.392-0.392-0.47-1.408-0.785-2.973-1.020-4.537-1.175-1.253-0.078-2.504 0-3.835 0.235-3.833 0.783-7.043 2.822-8.999 6.192-1.017 1.725-1.487 3.527-1.565 5.486-0.077 2.978 1.331 6.113 3.992 7.603-2.739 0.627-5.165-1.41-6.653-3.683-0.157-0.235-0.236-0.47-0.392-0.705-0.704-1.255-1.017-2.587-1.331-4.075-0.312-1.645-0.077-3.213-0.312-4.86h-0.157c-1.253 1.49-1.408 3.527-1.566 5.33-0.077 1.49 0.158 2.822 0.47 4.31 0.313 1.255 0.783 2.351 1.408 3.448 0.783 1.41 1.8 2.508 3.053 3.605 2.895 2.35 6.728 3.292 10.25 2.115 1.8-0.627 3.365-1.88 4.384-3.527l-0.002 0.002z"></path>
<path d="M381.854 21.585c1.13 0.833 2.518 1.328 4.020 1.328s2.915-0.503 4.051-1.349l1.455 1.475c0.2 0.201 0.463 0.311 0.746 0.311 0.281 0 0.544-0.11 0.744-0.311 0.406-0.41 0.406-1.078 0-1.488l-1.47-1.488c0.822-1.141 1.307-2.543 1.307-4.059s-0.49-2.928-1.317-4.071l1.504-1.522c0.195-0.199 0.307-0.464 0.307-0.744s-0.109-0.545-0.305-0.744c-0.199-0.201-0.463-0.311-0.744-0.311s-0.546 0.11-0.743 0.311l-1.494 1.512c-1.132-0.841-2.528-1.341-4.037-1.341s-2.88 0.491-4.008 1.32l-1.497-1.516c-0.199-0.201-0.463-0.311-0.744-0.311s-0.546 0.11-0.744 0.311c-0.406 0.41-0.406 1.078 0 1.488l1.499 1.517c-0.84 1.148-1.337 2.566-1.337 4.1s0.493 2.942 1.329 4.088l-1.467 1.483c-0.197 0.199-0.307 0.464-0.307 0.744s0.109 0.545 0.307 0.744c0.199 0.201 0.463 0.311 0.744 0.311s0.546-0.11 0.744-0.311l1.462-1.478h-0.003zM385.875 15.558c0.239 0 0.435 0.199 0.435 0.446s-0.195 0.446-0.435 0.446c-0.239 0-0.433-0.199-0.433-0.446s0.194-0.446 0.433-0.446zM383.178 17.25l-1.299 1.315c-0.463-0.742-0.738-1.62-0.738-2.561s0.278-1.83 0.746-2.574l1.267 1.282c0.185 0.188 0.429 0.293 0.692 0.306-0.143 0.298-0.226 0.632-0.226 0.987s0.074 0.657 0.205 0.945c-0.246 0.023-0.473 0.125-0.648 0.302v-0.002zM383.372 11.938c0.728-0.462 1.583-0.733 2.503-0.733s1.8 0.279 2.533 0.752l-1.273 1.29c-0.187 0.188-0.29 0.436-0.301 0.699-0.291-0.138-0.615-0.219-0.958-0.219s-0.647 0.075-0.931 0.206c-0.008-0.268-0.115-0.519-0.301-0.71l-1.27-1.284v-0.002zM389.883 13.46c0.458 0.739 0.726 1.61 0.726 2.543s-0.266 1.794-0.721 2.53l-1.292-1.308c-0.179-0.18-0.411-0.284-0.66-0.303 0.123-0.282 0.194-0.592 0.194-0.919 0-0.344-0.077-0.668-0.214-0.96 0.268-0.010 0.517-0.117 0.704-0.308l1.26-1.276h0.003zM388.421 20.042c-0.736 0.478-1.608 0.759-2.547 0.759-0.936 0-1.785-0.274-2.515-0.741l1.305-1.321c0.175-0.178 0.276-0.409 0.296-0.655 0.28 0.125 0.588 0.196 0.913 0.196s0.652-0.076 0.94-0.209c0.022 0.235 0.116 0.464 0.293 0.644l1.314 1.328z"></path>
<path d="M370.526 16.060c0 0.582 0.472 1.055 1.049 1.055h1.088c0.534 6.528 5.703 11.743 12.162 12.257v1.104c0 0.582 0.472 1.055 1.049 1.055s1.049-0.473 1.049-1.055v-1.104c6.459-0.514 11.629-5.729 12.162-12.257h1.088c0.579 0 1.049-0.473 1.049-1.055s-0.47-1.055-1.049-1.055h-1.078c-0.482-6.582-5.676-11.855-12.172-12.372v-1.104c0-0.582-0.472-1.055-1.049-1.055s-1.049 0.473-1.049 1.055v1.104c-6.496 0.517-11.688 5.79-12.168 12.372h-1.080c-0.578 0-1.049 0.473-1.049 1.055h-0.002zM384.825 25.531v1.726c-5.302-0.503-9.538-4.777-10.056-10.141h1.694c0.578 0 1.049-0.473 1.049-1.055s-0.472-1.055-1.049-1.055h-1.704c0.472-5.416 4.728-9.748 10.067-10.255v1.726c0 0.582 0.472 1.055 1.049 1.055s1.049-0.473 1.049-1.055v-1.726c5.339 0.507 9.597 4.839 10.067 10.255h-1.683c-0.578 0-1.049 0.473-1.049 1.055s0.472 1.055 1.049 1.055h1.674c-0.519 5.364-4.755 9.637-10.058 10.141v-1.726c0-0.582-0.472-1.055-1.049-1.055s-1.049 0.473-1.049 1.055z"></path>
<path d="M170.107 31.094c-7.587 0-14.852-1.295-20.457-3.649-6.594-2.767-10.226-6.653-10.226-10.939s3.944-8.444 10.823-11.182c5.509-2.197 12.561-3.406 19.858-3.406 7.296 0 14.348 1.209 19.857 3.406 6.877 2.738 10.823 6.813 10.823 11.182s-3.631 8.172-10.225 10.939c-5.605 2.352-12.869 3.649-20.455 3.649h0.002zM170.107 4.101c-7.027 0-13.794 1.154-19.054 3.25-6.006 2.391-9.45 5.727-9.45 9.154s3.24 6.556 8.889 8.926c5.344 2.244 12.309 3.479 19.614 3.479s14.269-1.235 19.613-3.479c5.649-2.37 8.889-5.623 8.889-8.926s-3.444-6.763-9.45-9.154c-5.258-2.096-12.024-3.25-19.050-3.25z"></path>
<path d="M170.107 10.756c-4.508 0-8.849-0.444-12.9-1.321-2.51-0.543-4.851-1.243-6.958-2.083l-2.544-1.013 2.544-1.013c5.51-2.197 12.563-3.406 19.86-3.406 7.296 0 14.348 1.209 19.857 3.406l2.545 1.015-2.545 1.013c-2.104 0.838-4.446 1.54-6.957 2.083-4.047 0.877-8.387 1.321-12.899 1.321l-0.002-0.002zM153.949 6.338c1.183 0.362 2.426 0.684 3.716 0.963 3.901 0.845 8.086 1.273 12.441 1.273s8.542-0.428 12.438-1.271c1.292-0.28 2.535-0.603 3.717-0.965-4.739-1.451-10.36-2.237-16.155-2.237-5.797 0-11.416 0.785-16.158 2.237h0.002z"></path>
<path d="M170.107 31.094c-7.587 0-14.852-1.295-20.457-3.649l-2.397-1.007 2.397-1.007c2.164-0.908 4.587-1.665 7.206-2.252 4.147-0.927 8.604-1.397 13.251-1.397s9.101 0.47 13.246 1.397c2.617 0.585 5.043 1.342 7.208 2.252l2.397 1.007-2.397 1.007c-5.605 2.352-12.869 3.649-20.455 3.649zM153.201 26.438c4.893 1.603 10.781 2.472 16.906 2.472 6.124 0 12.010-0.869 16.903-2.472-1.304-0.428-2.685-0.804-4.131-1.128-3.99-0.893-8.286-1.346-12.773-1.346s-8.786 0.452-12.776 1.346c-1.445 0.324-2.826 0.7-4.13 1.128h0.002z"></path>
<path d="M170.107 31.094c-9.359 0-16.972-6.544-16.972-14.586s7.613-14.586 16.972-14.586c9.357 0 16.972 6.544 16.972 14.586s-7.614 14.586-16.972 14.586zM170.107 4.101c-8.158 0-14.794 5.565-14.794 12.404s6.636 12.404 14.794 12.404c8.157 0 14.792-5.565 14.792-12.404s-6.636-12.404-14.792-12.404z"></path>
<path d="M171.195 3.011h-2.178v26.992h2.178v-26.992z"></path>
<path d="M199.697 15.414h-59.182v2.182h59.182v-2.182z"></path>
<path d="M102.468 12.104c0.131 0 0.233 0.037 0.308 0.112s0.112 0.178 0.112 0.31v3.289c0 0.131-0.037 0.233-0.112 0.308-0.074 0.076-0.178 0.112-0.308 0.112h-6.72c-0.131 0-0.233-0.037-0.309-0.112-0.074-0.075-0.112-0.177-0.112-0.308v-1.195c0-0.131 0.037-0.233 0.112-0.308s0.178-0.112 0.309-0.112h1.894l1.374-1.757c0.084-0.102 0.188-0.185 0.309-0.246s0.248-0.091 0.379-0.091l2.764-0.002zM98.665 21.619c-0.131 0-0.233-0.037-0.308-0.112-0.076-0.075-0.112-0.178-0.112-0.31v-2.459c0-0.131 0.023-0.264 0.070-0.4s0.108-0.254 0.183-0.358l0.94-1.209c0.074-0.104 0.173-0.185 0.295-0.246s0.248-0.091 0.379-0.091h2.344c0.131 0 0.233 0.037 0.309 0.112 0.074 0.075 0.112 0.178 0.112 0.31v4.341c0 0.131-0.037 0.235-0.112 0.31s-0.178 0.112-0.309 0.112l-3.79 0.002z"></path>
<path d="M103.983 12.526c0-0.131 0.037-0.233 0.112-0.31 0.074-0.075 0.178-0.112 0.309-0.112h11.336c0.131 0 0.257 0.031 0.379 0.091 0.121 0.062 0.22 0.143 0.295 0.246l1.361 1.757h1.921c0.131 0 0.233 0.037 0.309 0.112 0.074 0.075 0.112 0.178 0.112 0.308v1.195c0 0.131-0.037 0.233-0.112 0.308-0.075 0.076-0.178 0.112-0.309 0.112h-10.257c-0.131 0-0.257-0.031-0.379-0.091-0.121-0.062-0.22-0.143-0.295-0.246l-1.334-1.7h-3.030c-0.131 0-0.233-0.037-0.309-0.112s-0.112-0.178-0.112-0.31v-1.25l0.002 0.002zM104.404 21.619c-0.131 0-0.233-0.037-0.309-0.112-0.074-0.075-0.112-0.178-0.112-0.31v-4.341c0-0.131 0.037-0.233 0.112-0.31s0.178-0.112 0.309-0.112h3.676c0.131 0 0.233 0.037 0.309 0.112 0.074 0.075 0.112 0.178 0.112 0.31v0.632h7.24c0.131 0 0.257 0.031 0.379 0.091 0.121 0.062 0.225 0.143 0.309 0.246l1.347 1.701h1.921c0.131 0 0.233 0.037 0.309 0.112 0.074 0.076 0.112 0.178 0.112 0.31v1.25c0 0.131-0.037 0.235-0.112 0.31s-0.178 0.112-0.309 0.112h-15.292z"></path>
<path d="M129.504 12.104c0.168 0 0.252 0.052 0.252 0.154 0 0.047-0.024 0.109-0.070 0.183l-6.299 8.84c-0.074 0.102-0.171 0.185-0.288 0.246s-0.241 0.091-0.372 0.091h-1.641c-0.168 0-0.252-0.052-0.252-0.154 0-0.065 0.023-0.126 0.070-0.183l6.299-8.84c0.074-0.102 0.17-0.185 0.286-0.246s0.241-0.091 0.372-0.091h1.643z"></path>
<path d="M216.002 12.104c0.168 0 0.253 0.052 0.253 0.154 0 0.047-0.024 0.109-0.069 0.183l-6.299 8.84c-0.074 0.102-0.172 0.185-0.288 0.246-0.118 0.062-0.243 0.091-0.372 0.091h-1.642c-0.168 0-0.253-0.052-0.253-0.154 0-0.065 0.024-0.126 0.071-0.183l6.299-8.84c0.074-0.102 0.17-0.185 0.286-0.246s0.241-0.091 0.372-0.091h1.642z"></path>
<path d="M216.97 12.526c0-0.131 0.037-0.233 0.111-0.31 0.074-0.075 0.179-0.112 0.31-0.112h11.336c0.13 0 0.256 0.031 0.377 0.091 0.123 0.062 0.221 0.143 0.295 0.246l1.363 1.757h1.92c0.131 0 0.234 0.037 0.31 0.112s0.111 0.178 0.111 0.308v1.195c0 0.131-0.037 0.233-0.111 0.308-0.074 0.076-0.179 0.112-0.31 0.112h-10.257c-0.13 0-0.256-0.031-0.377-0.091-0.123-0.062-0.221-0.143-0.295-0.246l-1.334-1.7h-3.030c-0.131 0-0.234-0.037-0.31-0.112-0.074-0.075-0.111-0.178-0.111-0.31v-1.25l0.002 0.002zM217.391 21.619c-0.131 0-0.234-0.037-0.31-0.112-0.074-0.075-0.111-0.178-0.111-0.31v-4.341c0-0.131 0.037-0.233 0.111-0.31 0.074-0.075 0.179-0.112 0.31-0.112h3.675c0.131 0 0.234 0.037 0.31 0.112 0.074 0.075 0.111 0.178 0.111 0.31v0.632h7.24c0.13 0 0.256 0.031 0.377 0.091 0.123 0.062 0.226 0.143 0.31 0.246l1.347 1.701h1.92c0.131 0 0.234 0.037 0.31 0.112 0.074 0.076 0.111 0.178 0.111 0.31v1.25c0 0.131-0.037 0.235-0.111 0.31s-0.179 0.112-0.31 0.112h-15.291z"></path>
<path d="M234.2 12.526c0-0.131 0.037-0.233 0.111-0.31 0.074-0.075 0.179-0.112 0.31-0.112h11.335c0.131 0 0.258 0.031 0.379 0.091 0.121 0.062 0.221 0.143 0.295 0.246l1.361 1.757h1.922c0.131 0 0.232 0.037 0.31 0.112 0.074 0.075 0.111 0.178 0.111 0.308v1.195c0 0.131-0.037 0.233-0.111 0.308-0.076 0.076-0.179 0.112-0.31 0.112h-10.257c-0.131 0-0.258-0.031-0.379-0.091-0.121-0.062-0.219-0.143-0.295-0.246l-1.332-1.7h-3.030c-0.131 0-0.234-0.037-0.31-0.112s-0.111-0.178-0.111-0.31v-1.25l0.002 0.002zM234.621 21.619c-0.131 0-0.234-0.037-0.31-0.112-0.074-0.075-0.111-0.178-0.111-0.31v-4.341c0-0.131 0.037-0.233 0.111-0.31s0.179-0.112 0.31-0.112h3.675c0.131 0 0.232 0.037 0.308 0.112 0.077 0.075 0.113 0.178 0.113 0.31v0.632h7.239c0.131 0 0.258 0.031 0.379 0.091 0.121 0.062 0.226 0.143 0.31 0.246l1.346 1.701h1.922c0.131 0 0.232 0.037 0.31 0.112 0.074 0.076 0.111 0.178 0.111 0.31v1.25c0 0.131-0.037 0.235-0.111 0.31-0.076 0.075-0.179 0.112-0.31 0.112h-15.291z"></path>
<path d="M276.717 21.505c-0.47 2.9 1.644 5.487 4.069 6.898 0.234 0.078 0.47 0.235 0.704 0.392 1.096 0.548 2.191 0.862 3.443 1.097 0.704 0.078 1.331 0.157 2.035 0.235 1.019 0.078 2.035-0.078 3.053 0.078 0 0.078 0 0.157 0.077 0.157-0.158 0.157-0.236 0.313-0.392 0.392-1.096 0.627-2.269 0.862-3.522 1.097-2.661 0.392-5.322 0-7.747-1.020-2.504-1.175-4.618-2.9-6.104-5.33-1.019-1.725-1.487-3.527-1.566-5.487 0-2.978 1.331-6.035 3.992-7.603-0.704-0.157-1.487-0.157-2.191 0.078-2.584 0.783-4.303 2.9-5.322 5.33-0.391 1.020-0.627 1.96-0.861 3.057-0.312 1.645-0.077 3.213-0.312 4.86-0.313 0.078-0.392-0.235-0.547-0.47-1.019-1.88-1.253-3.998-1.174-6.035 0.157-3.057 1.174-6.035 3.208-8.465 1.799-2.115 3.992-3.605 6.808-4.155 3.677-0.705 7.668 0.627 9.548 3.84 0.234-1.255-0.077-2.508-0.704-3.605-1.253-2.115-3.208-3.448-5.477-4.233-1.019-0.392-2.112-0.548-3.208-0.705-1.331-0.157-2.661 0.078-3.992-0.235 0.077-0.235 0.234-0.392 0.392-0.47 1.408-0.785 2.973-1.020 4.537-1.175 1.253-0.078 2.504 0 3.835 0.235 3.833 0.783 7.042 2.822 8.999 6.192 1.017 1.725 1.487 3.527 1.565 5.486 0.077 2.978-1.331 6.113-3.992 7.603 2.739 0.627 5.165-1.41 6.653-3.683 0.157-0.235 0.236-0.47 0.392-0.705 0.704-1.255 1.017-2.587 1.331-4.075 0.312-1.645 0.077-3.213 0.312-4.86h0.157c1.253 1.49 1.408 3.527 1.566 5.33 0.077 1.49-0.158 2.822-0.47 4.31-0.313 1.255-0.783 2.351-1.408 3.448-0.783 1.41-1.8 2.508-3.053 3.605-2.895 2.35-6.728 3.292-10.25 2.115-1.8-0.627-3.365-1.88-4.384-3.527l0.002 0.002z"></path>
<path d="M330.344 23.063c0.199 0.201 0.463 0.311 0.744 0.311s0.546-0.11 0.744-0.311c0.197-0.199 0.305-0.464 0.305-0.744s-0.108-0.545-0.305-0.744l-1.467-1.483c0.834-1.146 1.329-2.56 1.329-4.088s-0.497-2.952-1.337-4.1l1.499-1.517c0.404-0.41 0.404-1.078 0-1.488-0.199-0.201-0.463-0.311-0.744-0.311s-0.546 0.11-0.744 0.311l-1.497 1.516c-1.127-0.828-2.511-1.32-4.008-1.32s-2.905 0.498-4.037 1.341l-1.494-1.512c-0.199-0.201-0.463-0.311-0.743-0.311s-0.546 0.11-0.744 0.311c-0.197 0.199-0.305 0.464-0.305 0.744s0.109 0.546 0.307 0.744l1.504 1.522c-0.827 1.143-1.319 2.55-1.319 4.071s0.488 2.918 1.309 4.059l-1.47 1.488c-0.406 0.41-0.406 1.078 0 1.488 0.2 0.201 0.463 0.311 0.744 0.311 0.283 0 0.546-0.11 0.744-0.311l1.457-1.475c1.135 0.846 2.535 1.349 4.051 1.349 1.514 0 2.892-0.494 4.020-1.328l1.462 1.478h-0.003zM325.295 16.004c0 0.246-0.194 0.446-0.433 0.446s-0.435-0.199-0.435-0.446c0-0.246 0.195-0.446 0.435-0.446s0.433 0.199 0.433 0.446zM326.91 16.949c0.131-0.289 0.207-0.608 0.207-0.945s-0.084-0.687-0.227-0.987c0.263-0.013 0.507-0.118 0.692-0.306l1.267-1.282c0.468 0.746 0.746 1.628 0.746 2.574s-0.275 1.82-0.738 2.561l-1.299-1.315c-0.175-0.177-0.403-0.279-0.648-0.301v0.002zM326.095 13.222c-0.187 0.191-0.293 0.443-0.301 0.71-0.285-0.131-0.598-0.206-0.931-0.206s-0.667 0.079-0.958 0.219c-0.012-0.263-0.115-0.509-0.301-0.699l-1.273-1.29c0.733-0.473 1.6-0.752 2.533-0.752 0.931 0 1.775 0.271 2.503 0.733l-1.27 1.284v0.002zM322.115 14.734c0.189 0.191 0.438 0.298 0.704 0.308-0.136 0.292-0.214 0.618-0.214 0.96s0.071 0.639 0.195 0.919c-0.249 0.020-0.482 0.122-0.662 0.303l-1.292 1.308c-0.453-0.736-0.721-1.602-0.721-2.53s0.268-1.806 0.726-2.543l1.26 1.276h0.003zM323.629 18.714c0.175-0.18 0.271-0.408 0.293-0.644 0.288 0.133 0.605 0.209 0.94 0.209s0.633-0.071 0.913-0.196c0.020 0.246 0.121 0.478 0.296 0.655l1.305 1.321c-0.729 0.467-1.59 0.741-2.515 0.741s-1.811-0.28-2.547-0.759l1.314-1.328z"></path>
<path d="M339.161 15.005h-1.080c-0.48-6.582-5.674-11.855-12.17-12.372v-1.104c0-0.582-0.472-1.055-1.049-1.055s-1.049 0.473-1.049 1.055v1.104c-6.496 0.517-11.688 5.79-12.172 12.372h-1.080c-0.578 0-1.048 0.473-1.048 1.055s0.47 1.055 1.048 1.055h1.090c0.532 6.528 5.703 11.743 12.162 12.257v1.104c0 0.582 0.472 1.055 1.049 1.055s1.049-0.473 1.049-1.055v-1.104c6.459-0.514 11.628-5.729 12.16-12.257h1.090c0.578 0 1.049-0.473 1.049-1.055s-0.472-1.055-1.049-1.055zM324.862 24.475c-0.578 0-1.049 0.473-1.049 1.055v1.726c-5.302-0.503-9.538-4.777-10.060-10.141h1.676c0.578 0 1.049-0.473 1.049-1.055s-0.472-1.055-1.049-1.055h-1.683c0.47-5.416 4.728-9.748 10.067-10.255v1.726c0 0.582 0.472 1.055 1.049 1.055s1.049-0.473 1.049-1.055v-1.726c5.339 0.507 9.595 4.839 10.067 10.255h-1.704c-0.578 0-1.049 0.473-1.049 1.055s0.472 1.055 1.049 1.055h1.694c-0.519 5.364-4.755 9.637-10.056 10.141v-1.726c0-0.582-0.472-1.055-1.049-1.055z"></path>
<path d="M63.493 21.505c0.469 2.9-1.643 5.487-4.069 6.898-0.235 0.078-0.469 0.235-0.704 0.392-1.096 0.548-2.191 0.862-3.443 1.097-0.704 0.078-1.331 0.157-2.035 0.235-1.018 0.078-2.035-0.078-3.052 0.078 0 0.078 0 0.157-0.078 0.157 0.157 0.157 0.235 0.313 0.392 0.392 1.096 0.627 2.269 0.862 3.522 1.097 2.661 0.392 5.322 0 7.748-1.020 2.504-1.175 4.618-2.9 6.103-5.33 1.018-1.725 1.487-3.527 1.565-5.487 0-2.978-1.33-6.035-3.991-7.603 0.704-0.157 1.487-0.157 2.192 0.078 2.583 0.783 4.304 2.9 5.322 5.33 0.392 1.020 0.626 1.96 0.861 3.057 0.312 1.645 0.078 3.213 0.312 4.86 0.312 0.078 0.392-0.235 0.547-0.47 1.018-1.88 1.253-3.998 1.173-6.035-0.157-3.057-1.173-6.035-3.208-8.465-1.8-2.115-3.991-3.605-6.807-4.155-3.677-0.705-7.669 0.627-9.548 3.84-0.235-1.255 0.078-2.508 0.704-3.605 1.253-2.115 3.208-3.448 5.477-4.233 1.018-0.392 2.112-0.548 3.208-0.705 1.33-0.157 2.661 0.078 3.991-0.235-0.078-0.235-0.235-0.392-0.392-0.47-1.408-0.785-2.973-1.020-4.538-1.175-1.253-0.078-2.504 0-3.834 0.235-3.834 0.783-7.044 2.822-8.999 6.192-1.018 1.725-1.487 3.527-1.565 5.486-0.078 2.978 1.33 6.113 3.991 7.603-2.739 0.627-5.165-1.41-6.652-3.683-0.157-0.235-0.235-0.47-0.392-0.705-0.704-1.255-1.018-2.587-1.331-4.075-0.312-1.645-0.078-3.213-0.312-4.86h-0.157c-1.253 1.49-1.408 3.527-1.565 5.33-0.078 1.49 0.157 2.822 0.469 4.31 0.312 1.255 0.783 2.351 1.408 3.448 0.783 1.41 1.8 2.508 3.052 3.605 2.896 2.35 6.73 3.292 10.252 2.115 1.8-0.627 3.365-1.88 4.383-3.527l-0.002 0.002z"></path>
<path d="M11.328 21.585c1.13 0.833 2.518 1.328 4.020 1.328s2.915-0.503 4.050-1.349l1.457 1.475c0.199 0.201 0.463 0.311 0.744 0.311s0.546-0.11 0.745-0.311c0.406-0.41 0.406-1.078 0-1.488l-1.47-1.488c0.822-1.141 1.308-2.543 1.308-4.059s-0.49-2.928-1.318-4.071l1.504-1.522c0.196-0.199 0.306-0.464 0.306-0.744s-0.108-0.545-0.304-0.744c-0.199-0.201-0.463-0.311-0.745-0.311s-0.545 0.11-0.743 0.311l-1.494 1.512c-1.131-0.841-2.528-1.341-4.037-1.341s-2.881 0.491-4.009 1.32l-1.497-1.516c-0.199-0.201-0.463-0.311-0.745-0.311s-0.545 0.11-0.745 0.311c-0.405 0.41-0.405 1.078 0 1.488l1.499 1.517c-0.84 1.148-1.337 2.566-1.337 4.1s0.494 2.942 1.329 4.088l-1.466 1.483c-0.197 0.199-0.306 0.464-0.306 0.744s0.108 0.545 0.306 0.744c0.199 0.201 0.463 0.311 0.745 0.311s0.545-0.11 0.745-0.311l1.462-1.478h-0.003zM15.348 15.558c0.24 0 0.434 0.199 0.434 0.446s-0.194 0.446-0.434 0.446c-0.24 0-0.434-0.199-0.434-0.446s0.194-0.446 0.434-0.446zM12.652 17.25l-1.298 1.315c-0.464-0.742-0.738-1.62-0.738-2.561s0.277-1.83 0.746-2.574l1.266 1.282c0.186 0.188 0.431 0.293 0.693 0.306-0.144 0.298-0.227 0.632-0.227 0.987s0.074 0.657 0.206 0.945c-0.244 0.023-0.473 0.125-0.647 0.302v-0.002zM12.846 11.938c0.727-0.462 1.583-0.733 2.502-0.733s1.8 0.279 2.533 0.752l-1.274 1.29c-0.186 0.188-0.29 0.436-0.301 0.699-0.291-0.138-0.615-0.219-0.958-0.219s-0.647 0.075-0.932 0.206c-0.008-0.268-0.113-0.519-0.301-0.71l-1.269-1.284v-0.002zM19.356 13.46c0.458 0.739 0.727 1.61 0.727 2.543s-0.267 1.794-0.72 2.53l-1.293-1.308c-0.178-0.18-0.411-0.284-0.66-0.303 0.123-0.282 0.194-0.592 0.194-0.919 0-0.344-0.078-0.668-0.214-0.96 0.267-0.010 0.516-0.117 0.704-0.308l1.259-1.276h0.003zM17.894 20.042c-0.736 0.478-1.609 0.759-2.546 0.759s-1.785-0.274-2.515-0.741l1.306-1.321c0.175-0.178 0.275-0.409 0.296-0.655 0.28 0.125 0.588 0.196 0.913 0.196s0.652-0.076 0.939-0.209c0.023 0.235 0.117 0.464 0.295 0.644l1.313 1.328z"></path>
<path d="M0 16.060c0 0.582 0.471 1.055 1.049 1.055h1.089c0.532 6.528 5.702 11.743 12.162 12.257v1.104c0 0.582 0.471 1.055 1.049 1.055s1.049-0.473 1.049-1.055v-1.104c6.46-0.514 11.629-5.729 12.161-12.257h1.089c0.578 0 1.049-0.473 1.049-1.055s-0.471-1.055-1.049-1.055h-1.080c-0.481-6.582-5.674-11.855-12.171-12.372v-1.104c0-0.582-0.471-1.055-1.049-1.055s-1.049 0.473-1.049 1.055v1.104c-6.497 0.517-11.689 5.79-12.17 12.372h-1.080c-0.578 0-1.049 0.473-1.049 1.055h-0.002zM14.3 25.531v1.726c-5.302-0.503-9.538-4.777-10.057-10.141h1.695c0.578 0 1.049-0.473 1.049-1.055s-0.471-1.055-1.049-1.055h-1.704c0.471-5.416 4.728-9.748 10.067-10.255v1.726c0 0.582 0.471 1.055 1.049 1.055s1.049-0.473 1.049-1.055v-1.726c5.34 0.507 9.596 4.839 10.067 10.255h-1.683c-0.578 0-1.049 0.473-1.049 1.055s0.471 1.055 1.049 1.055h1.675c-0.52 5.364-4.755 9.637-10.059 10.141v-1.726c0-0.582-0.471-1.055-1.049-1.055s-1.049 0.473-1.049 1.055z"></path>
</symbol>
</defs>
</svg>
