<svg width="349" height="55" viewBox="0 0 349 55" fill="none" xmlns="http://www.w3.org/2000/svg">
<g clip-path="url(#clip0_1_145)">
<path d="M25.5894 1.3584C11.4788 1.3584 0 12.9803 0 27.2569C0 41.5334 11.4788 53.1554 25.5894 53.1554C39.7 53.1554 51.1788 41.5397 51.1788 27.2569C51.1788 12.9741 39.7062 1.3584 25.5894 1.3584ZM25.5894 4.15638C38.1694 4.15638 48.404 14.5195 48.404 27.2569C48.404 39.9942 38.1694 50.3574 25.5894 50.3574C13.0093 50.3574 2.78105 39.9942 2.78105 27.2569C2.78105 14.5195 13.0156 4.15638 25.5894 4.15638Z" fill="white"/>
<path d="M7.6276 31.5256C7.72715 31.887 7.96357 32.1861 8.28709 32.3669C8.61061 32.5476 8.98391 32.5912 9.34476 32.4915C10.0789 32.2796 10.5082 31.5069 10.3029 30.7653C9.9047 29.3445 9.70561 27.8677 9.70561 26.3783C9.70561 17.5045 16.8355 10.2883 25.5955 10.2883C34.3555 10.2883 41.4855 17.5045 41.4855 26.3783C41.4855 28.1232 41.2117 29.8368 40.6705 31.4695C40.4278 32.1986 40.826 32.99 41.5477 33.2331C41.6908 33.2829 41.8401 33.3078 41.9894 33.3078C42.201 33.3078 42.4125 33.258 42.6054 33.1583C42.9413 32.99 43.1902 32.7034 43.3022 32.3482C43.9368 30.4288 44.2541 28.416 44.2541 26.3721C44.2541 15.9591 35.8798 7.48413 25.5893 7.48413C15.2988 7.48413 6.92456 15.9591 6.92456 26.3721C6.92456 28.1169 7.16098 29.8493 7.6276 31.5194V31.5256Z" fill="white"/>
<path d="M19.9029 22.3838C17.5822 22.3838 16.9663 28.1044 16.9663 31.4881C16.9663 34.8719 17.5822 40.5925 19.9029 40.5925C22.2236 40.5925 22.8395 34.8719 22.8395 31.4881C22.8395 28.1044 22.2236 22.3838 19.9029 22.3838Z" fill="white"/>
<path d="M31.282 22.3838C28.9614 22.3838 28.3455 28.1044 28.3455 31.4881C28.3455 34.8719 28.9614 40.5925 31.282 40.5925C33.6027 40.5925 34.2186 34.8719 34.2186 31.4881C34.2186 28.1044 33.6027 22.3838 31.282 22.3838Z" fill="white"/>
<path d="M84.7567 1.17165L83.8919 1.31498L83.0333 1.40846L82.1996 1.68888L81.3348 1.66395L80.4327 1.48947L79.6301 1.89452L78.7528 1.91945L77.9005 2.0877L77.0979 2.43044L76.37 2.96012L75.586 3.30286L74.6901 3.37141L73.8502 3.61444L73.1347 4.11296L72.3881 4.54294L71.5856 4.87945L71.063 5.6584L70.2853 6.03229L69.5262 6.44358L68.9601 7.11036L68.201 7.54034L67.6162 8.17596L66.9878 8.76173L66.3657 9.35373L65.7995 9.99559L65.0467 10.4816L64.748 11.3478L64.0699 11.9087L63.6282 12.6502L63.062 13.3108L62.9189 14.2268L62.3092 14.8687L61.799 15.5729L61.6932 16.4764L61.3448 17.2554L61.0213 18.0468L60.4987 18.7697L60.0694 19.5424L60.0507 20.4397L59.9699 21.3059L59.8703 22.1596L59.7521 23.0071L59.1735 23.7923L59.5344 24.7021L59.329 25.5434L59.0366 26.3909L59.4161 27.2571L59.3788 28.1108L59.1548 28.9832L59.4037 29.8245L59.3477 30.6969L59.5406 31.5382L59.7957 32.367V33.2456L59.9823 34.0869L60.3183 34.8845L60.5982 35.6947L61.0026 36.4611L61.0462 37.371L61.3946 38.1624L62.0728 38.7918L62.4834 39.5395L62.558 40.4805L63.23 41.0788L63.5099 41.9262L63.9206 42.6927L64.7418 43.1539L65.2893 43.8144L65.6191 44.6681L66.1852 45.3225L66.9318 45.8023L67.666 46.2759L68.0766 47.1109L68.9663 47.3851L69.3956 48.2326L70.1235 48.7062L70.8452 49.186L71.5482 49.7033L72.5001 49.7843L73.2716 50.1519L73.9311 50.7502L74.6964 51.1428L75.586 51.2362L76.4135 51.4606L77.1539 51.9342L78 52.0962L78.8399 52.2582L79.6487 52.5636L80.5198 52.5449L81.3037 53.1057L82.1934 52.9437L83.0582 52.8315L83.8981 53.1493H84.7567L85.609 52.9562L86.4738 53.0808L87.3137 52.8191L88.191 52.9499L88.9998 52.5636L89.8584 52.5137L90.7543 52.576L91.5755 52.3081L92.3283 51.822L93.1558 51.5977L94.0331 51.4855L94.8356 51.1677L95.5698 50.7003L96.447 50.5321L97.0194 49.778L97.9029 49.5911L98.4753 48.8807L99.4023 48.7124L100.105 48.2015L100.504 47.3103L101.182 46.7931L101.997 46.4192L102.718 45.9207L103.241 45.2228L103.683 44.4625L104.361 43.9141L104.765 43.1352L105.468 42.5868L105.692 41.6957L106.426 41.1535L106.8 40.3746L107.416 39.7265L107.64 38.8665L107.92 38.044L108.368 37.3024L108.722 36.5172L108.996 35.7009L108.977 34.7911L109.637 34.0869L109.705 33.2145L110.097 32.4168L110.122 31.5382L110.321 30.6907L110.477 29.837L110.097 28.9396L110.576 28.0984V27.2322L110.172 26.3784L110.421 25.506L110.477 24.6336L109.886 23.8359L110.247 22.9137L109.724 22.1285V21.2498L109.295 20.4709L109.22 19.5985L108.71 18.8631L108.722 17.9471L108.28 17.1931L107.907 16.4204L107.795 15.5168L107.329 14.7814L106.806 14.0835L106.414 13.3108L105.68 12.7686L105.369 11.9398L104.747 11.3291L104.442 10.4692L103.888 9.8024L103.285 9.17925L102.476 8.76796L101.841 8.18842L101.393 7.39701L100.74 6.82371L99.8254 6.59937L99.2094 5.98867L98.581 5.38421L97.8033 5.00408L97.1314 4.44324L96.2106 4.34977L95.5449 3.77023L94.7174 3.52096L94.0579 2.85418L93.1434 2.83549L92.4217 2.26841L91.5258 2.24349L90.6547 2.18117L89.8521 1.8509L88.9873 1.78858L88.1723 1.43961L87.3013 1.45831L86.4552 1.22774L85.5841 1.41469L84.7256 1.14673L84.7567 1.17165ZM84.7567 50.1706L83.8981 50.2828H83.0395L82.1623 50.4137L81.3224 50.1769L80.5322 49.7282L79.6425 49.7967L78.8524 49.4291L78.0498 49.1424L77.2099 48.9679L76.314 48.9119L75.4989 48.6127L74.8395 47.9958L74.1364 47.4911L73.3276 47.1857L72.5872 46.7557L71.9402 46.1887L71.0194 45.9955L70.4159 45.3661L69.8311 44.7242L69.072 44.2756L68.5619 43.5652L67.9086 42.9981L67.3487 42.3438L66.8261 41.6583L66.291 40.979L66.0048 40.1315L65.2769 39.5769L65.0156 38.7357L64.5489 38.0128L64.269 37.1965L63.597 36.5546L63.4726 35.6697L63.2984 34.8222L62.7571 34.0931L62.5269 33.2581L62.3278 32.4168L62.3963 31.5257L62.4274 30.6533L62.0914 29.837L61.8799 28.9895L61.7492 28.1295L61.6995 27.2633L62.1723 26.4096L61.7555 25.5247L61.9732 24.6772L62.3278 23.8609L62.079 22.9448L62.303 22.1036L62.7634 21.3308L62.8256 20.4522L63.2362 19.6795L63.4664 18.8507L63.6966 18.0156L64.2192 17.3115L64.6236 16.5574L64.9471 15.7536L65.3702 15.0058L65.7373 14.2144L66.4714 13.6785L66.9878 12.9992L67.2678 12.1143L67.8277 11.4538L68.705 11.1048L69.1343 10.3134L69.9182 9.90211L70.6337 9.43474L71.0754 8.60594L71.766 8.08872L72.6495 7.87061L73.3898 7.44686L74.0369 6.85486L74.7275 6.31895L75.6545 6.27533L76.3078 5.61478L77.2534 5.68956L78.0436 5.37798L78.8586 5.13495L79.6985 4.99162L80.4513 4.41208L81.2975 4.22513L82.1809 4.356L83.0333 4.31861L83.8794 4.01949L84.7442 3.92602L85.6028 4.15659L86.4676 4.1192L87.3324 4.14412L88.1723 4.37469L89.0558 4.34353L89.8024 4.948L90.6983 4.89814L91.5817 4.96046L92.3097 5.49638L93.1185 5.78303L93.9833 5.95752L94.6925 6.47474L95.5449 6.69907L96.1795 7.32846L97.0505 7.55903L97.71 8.13234L98.2575 8.84274L98.9606 9.3288L99.7756 9.69024L100.379 10.3072L100.852 11.0487L101.431 11.6781L102.084 12.2452L102.438 13.0553L103.266 13.504L103.527 14.3702L104.243 14.931L104.355 15.8657L104.765 16.6135L105.555 17.1806L105.879 17.9845L105.96 18.8818L106.128 19.7293L106.507 20.5083L106.918 21.2872L106.968 22.1596L107.31 22.9698L107.223 23.8546L107.658 24.6647L107.422 25.5496L107.553 26.4034L107.347 27.2633L107.528 28.1233L107.584 28.9895L107.391 29.837L107.241 30.6845L107.123 31.532L107.241 32.4355L106.613 33.1709L106.52 34.0308L106.053 34.7786L105.885 35.6261L105.499 36.3864L105.095 37.1342L105.114 38.1063L104.317 38.6484L103.888 39.3838L103.757 40.3185L103.023 40.8544L102.407 41.4526L102.246 42.431L101.306 42.7488L100.989 43.6275L100.242 44.0948L99.7569 44.8426L98.9917 45.2664L98.4753 46.0017L97.5856 46.2447L96.9448 46.8305L96.2293 47.3103L95.3396 47.4786L94.6179 47.9335L93.89 48.4009L93.0749 48.6751L92.3843 49.2795L91.4946 49.3418L90.7045 49.7095L89.8024 49.6285L88.9687 49.7905L88.135 49.9588L87.32 50.3576L86.4614 50.4573L85.5904 50.2143L84.738 50.1831L84.7567 50.1706Z" fill="white"/>
<path d="M102.793 22.9759L102.071 22.1284L100.983 21.9602L100.298 22.3154L99.9 22.9946L100.192 23.7112L100.304 24.6024L100.379 25.4935L100.709 26.3472L100.715 27.2446L100.721 28.1419L100.746 29.0143L100.684 29.8805L100.429 30.728L100.317 31.588L100.068 32.423L99.7382 33.2269L99.4955 34.0557L99.0787 34.8159L98.7676 35.6198L98.4565 36.4424L97.8717 37.0967L97.5171 37.9068L96.7456 38.4053L96.4345 39.2778L95.7688 39.8511L95.0658 40.3683L94.3005 40.792L93.8028 41.5772L92.9815 41.9075L92.2785 42.4309L91.507 42.836L90.636 43.0105L89.8707 43.4342L88.9811 43.4778L88.1536 43.6897L87.3572 44.1322L86.4613 43.9577L85.609 44.0574L84.7566 44.3067L83.8856 44.2319L83.0146 44.2381L82.1746 44.0013L81.3534 43.7147L80.501 43.5776L79.6673 43.3408L78.9021 42.9357L78.1057 42.6117L77.2658 42.3686L76.4819 41.9823L75.81 41.4277L75.0509 40.9914L74.5159 40.281L73.7755 39.8074L73.2778 39.0846L72.6183 38.5175L72.1392 37.8009L71.5606 37.1466L70.9758 36.486L70.8576 35.5575L70.2043 34.9156L70.1421 34.0058L69.5137 33.3079L69.2835 32.4666L69.1031 31.6067L69.1715 30.7156L68.8231 29.8868L68.7173 29.0143L68.9164 28.1419L68.8356 27.2757L68.8107 26.3971L68.9724 25.5433L69.3831 24.7457L69.495 23.892L69.6755 23.0445L69.6257 22.3465L69.2648 21.7982L68.8604 21.1064L67.7219 21.3183L67.1682 22.2094L66.9629 23.0445L66.6767 23.8608L66.5771 24.7208L66.1665 25.5309L66.0296 26.3908L66.2536 27.2757L66.2474 28.1419L65.9612 29.0143L66.21 29.8681L66.4029 30.7156L66.3531 31.6004L66.5585 32.4479L66.7202 33.3017L67.05 34.1118L67.305 34.9406L67.5041 35.8068L68.0765 36.4985L68.3441 37.3397L68.9227 38.0065L69.2773 38.8104L69.7626 39.5333L70.3163 40.2125L70.9136 40.8419L71.5606 41.4277L72.133 42.0757L72.9045 42.512L73.396 43.2784L74.1612 43.7084L74.8269 44.2817L75.6482 44.5995L76.4757 44.8862L77.1165 45.5467L78.0435 45.5779L78.8336 45.9269L79.6238 46.3008L80.4326 46.6373L81.2787 46.8616L82.1498 46.9364L83.027 46.8928L83.898 46.8304L84.7566 47.1483L85.6152 46.818L86.4862 46.9551L87.3448 46.8491L88.2158 46.7868L89.0868 46.6684L89.9205 46.4129L90.7418 46.1263L91.5879 45.8957L92.3656 45.4907L93.1433 45.0981L93.9086 44.6868L94.6987 44.3004L95.3209 43.671L96.0239 43.16L96.6958 42.6179L97.3989 42.1007L97.9277 41.3965L98.5561 40.8045L99.0725 40.1066L99.7071 39.5021L100.273 38.8415L100.64 38.0377L101.051 37.2774L101.393 36.4798L101.76 35.6946L102.053 34.8845L102.413 34.0993L102.65 33.2643L102.837 32.423L103.135 31.6004L103.216 30.7343L103.173 29.8556L103.291 29.0019L103.272 28.1419L103.577 27.2633L103.204 26.4158L103.428 25.5184L102.986 24.7083L102.749 23.8795L102.793 22.9759Z" fill="white"/>
<path d="M90.4433 32.068L91.277 31.9309L91.8867 31.3139L92.1978 30.5101L92.4902 29.7249L92.7141 28.9085L92.9443 28.0922L93.0066 27.2447L93.1372 26.4097L93.2243 25.5684L93.4172 24.7271L93.4607 23.8796L93.299 23.0259L93.3363 22.1847L93.3239 21.3372L93.2865 20.4897L93.1559 19.6484L93.1745 18.7884L92.9257 17.9721L92.739 17.1433L92.6208 16.2896L92.1853 15.548L91.8369 14.7753L91.1899 14.2518L90.4433 13.9839L89.6158 14.1334L89.1243 14.8252L88.7261 15.5605L88.3217 16.3083L88.0666 17.1184L88.0231 17.9783L87.8302 18.8009L87.6249 19.6297L87.6933 20.4897L87.4756 21.3309L87.544 22.1784L87.4756 23.0259L87.4382 23.8796L87.5564 24.7209L87.6498 25.5622L87.7431 26.4034L87.8177 27.2509L87.8862 28.1047L88.0791 28.9335L88.4212 29.7186L88.7012 30.5101L89.0061 31.3139L89.6905 31.8249L90.4433 32.068Z" fill="white"/>
<path d="M79.0639 32.0431L79.8976 31.9309L80.4015 31.2392L80.9117 30.5537L81.2352 29.7623L81.3534 28.9148L81.5463 28.0922L81.7143 27.2572L81.7329 26.4035L81.82 25.5622L82.0316 24.7272V23.8797L81.9196 23.0259L81.9134 22.1847L81.8885 21.3372L81.82 20.4959L81.7329 19.6547L81.7578 18.7947L81.6458 17.9472L81.3472 17.1433L81.0672 16.3457L80.8433 15.5293L80.47 14.7691L79.8665 14.1646L79.0639 13.959L78.2862 14.202L77.6329 14.7504L77.2783 15.5293L77.0045 16.327L76.681 17.1184L76.5317 17.9597L76.3886 18.7947L76.2642 19.636L76.2144 20.4835L76.2393 21.3372L76.1708 22.1847L76.0962 23.0259L76.0837 23.8797L76.2268 24.7209L76.1584 25.5747L76.3139 26.4097L76.4384 27.251L76.569 28.0922L76.6935 28.9335L76.9983 29.7311L77.2472 30.5412L77.6765 31.2828L78.2862 31.8499L79.0639 32.0431Z" fill="white"/>
<path d="M143.918 1.46431L143.053 1.20258L142.17 1.00317L141.342 1.51416L140.421 1.11534L139.656 1.84444L138.741 1.65126L138.07 2.57977L137.055 2.06254L136.309 2.59223L135.637 3.26524L134.71 3.20292L133.994 3.70145L133.254 4.1252L132.165 3.85724L131.705 4.82314L130.834 5.02255L130.069 5.42137L129.565 6.20655L128.949 6.80478L127.891 6.83594L127.456 7.65851L126.535 7.92024L126.087 8.70542L125.353 9.19771L125.017 10.0577L124.034 10.3506L123.835 11.304L123.629 12.2138L122.926 12.7622L122.316 13.3853L121.775 14.0646L121.34 14.8124L121.47 15.8468L121.122 16.6195L119.884 17.0184L119.66 17.8721L119.461 18.7258L119.249 19.5733L119.361 20.5018L118.901 21.2745L118.733 22.122L118.347 22.9321L118.845 23.8793L118.042 24.6583L118.067 25.5369L117.887 26.4031L118.783 27.2818L118.148 28.148L118.664 28.983L118.216 29.8804L118.677 30.6967L118.658 31.5691L119.125 32.3543L119.007 33.2579L118.764 34.2175L119.038 35.0526L120.176 35.5885L120.481 36.3799L120.182 37.4206L121.128 37.9378L121.215 38.8351L121.302 39.7574L121.8 40.4678L122.665 40.9414L122.889 41.8138L123.181 42.6613L123.779 43.2907L124.345 43.9388L124.587 44.8798L125.763 44.9608L125.801 46.1323L126.578 46.581L127.586 46.7368L128.121 47.4285L128.526 48.3134L129.129 48.9677L129.913 49.3728L131.095 49.0986L131.636 49.8526L132.458 50.1268L132.906 51.1675L133.895 51.0802L134.641 51.5351L135.326 52.1832L136.228 52.2393L137.236 51.8592L137.852 52.9185L138.872 52.2892L139.718 52.3577L140.452 53.2364L141.355 52.9559L142.194 53.2114L143.065 53.0058L143.918 53.2114L144.789 53.4171L145.66 53.3859L146.487 52.9123L147.402 53.2987L148.217 52.9061L149.088 52.8687L150.003 52.9684L150.805 52.582L151.651 52.3764L152.51 52.1957L153.045 51.1612L154.071 51.3918L154.563 50.401L155.596 50.563L156.361 50.1517L156.909 49.379L157.96 49.4288L158.153 48.1763L159.416 48.4567L159.783 47.5158L160.218 46.7119L161.17 46.4938L161.643 45.746L162.701 45.5715L162.819 44.4997L163.702 44.1258L164.02 43.272L164.723 42.7174L164.71 41.6581L165.339 41.0536L166.048 40.4803L166.34 39.6577L167.187 39.1218L167.05 38.0936L167.728 37.4517L167.84 36.5668L167.989 35.7069L168.636 35.009L168.823 34.1552L169.134 33.3389L169.327 32.4914L168.991 31.5504L169.663 30.7777L168.91 29.8243L168.96 28.983L169.912 28.1667L169.327 27.2942L169.265 26.4405L169.557 25.5681L169.613 24.6957L169.209 23.8731L168.898 23.0568L169.489 22.0722L168.593 21.3805L168.12 20.6264L168.506 19.6294L167.933 18.9128L167.442 18.1837L167.423 17.2739L167.554 16.2706L167.137 15.5041L165.967 15.1489L166.172 14.0521L165.824 13.2482L164.81 12.8806L164.661 11.9334L163.771 11.5283L163.136 10.9488L163.18 9.77725L162.16 9.54668L161.531 8.97338L160.859 8.44992L160.449 7.62735L159.826 7.03535L158.931 6.79855L158.439 6.02583L157.991 5.14095L157.045 5.01632H156.056L155.422 4.40562L154.787 3.7513L154.134 3.09076L153.182 3.12191L152.205 3.2964L151.689 2.13109L150.668 2.52368L149.779 2.57353L149.088 1.7385L148.142 2.1124L147.321 1.84444L146.531 1.15896L145.61 1.83198L144.776 1.36461L143.918 1.5017V1.46431ZM143.918 50.4633L143.065 50.1704L142.232 49.8775L141.342 50.2327L140.564 49.6158L139.625 50.0645L138.86 49.541L137.839 50.0645L137.223 49.0986H136.321L135.357 49.1921L134.704 48.5003L133.839 48.3009L133.03 47.9707L132.638 46.9175L131.58 47.0048L131.008 46.3006L130.355 45.746L129.446 45.5029L128.7 45.0356L128.482 43.9949L127.624 43.6459L127.337 42.7361L126.578 42.2688L126.18 41.4898L125.396 41.01L125.365 39.988L124.538 39.5082L123.766 38.9598L123.579 38.0687L123.349 37.2212L123.094 36.3986L122.783 35.601L121.931 34.9903L121.645 34.1615L122.348 33.0709L122.043 32.2795L121.769 31.4694L121.57 30.6406L121.103 29.8367L121.284 28.9581L121.221 28.1044L121.439 27.2506L120.823 26.3782L121.576 25.5619L121.557 24.7081L121.8 23.8856L121.047 22.8885L121.856 22.1719L121.595 21.2247L122.329 20.5392L122.242 19.6107L122.677 18.8504L122.708 17.9282L123.343 17.2676L124.139 16.7192L124.513 15.9652L124.158 14.7563L124.618 14.0085L125.657 13.6782V12.5939L126.448 12.1141L127.275 11.6966L127.804 11.0173L128.078 10.0577L128.911 9.68378L129.726 9.32234L130.336 8.71788L131.014 8.1882L131.96 8.07603L132.265 6.93565L133.403 7.20984L134.057 6.6303L134.604 5.76411L135.475 5.60209L136.433 5.72049L137.286 5.61455L138.063 5.27804L138.685 4.23114L139.613 4.42432L140.44 4.13143L141.386 4.74836L142.188 4.18128L143.053 4.26853L143.905 4.6175L144.752 4.39939L145.647 3.79493L146.419 4.74213L147.377 4.02549L148.254 4.08158L148.939 5.00385L149.859 4.84183L150.631 5.25935L151.527 5.29674L152.261 5.7828L152.964 6.31872L153.723 6.69261L154.669 6.72377L155.173 7.57127L156.038 7.78937L156.678 8.36891L157.188 9.10424L157.954 9.4906L158.57 10.0701L159.123 10.712L160.281 10.7556L160.43 11.7963L161.519 11.9832L161.593 13.0364L162.11 13.7156L162.925 14.1954L162.887 15.2361L164.126 15.4978L163.684 16.7192L164.53 17.2489L165.196 17.897L165.09 18.8754L165.588 19.6107L165.252 20.6202L166.098 21.2683L165.886 22.203L166.34 22.982L166.253 23.8606L166.975 24.6396L166.863 25.5245L166.602 26.4031L166.764 27.2569L166.247 28.0981L166.77 28.983L166.328 29.8056L166.44 30.6842V31.5567L165.886 32.3169L165.743 33.1582L165.413 33.9496L165.146 34.7535L165.32 35.7318L164.486 36.3176L164.909 37.458L164.536 38.2494L163.329 38.5672L163.404 39.6079L162.975 40.3619L162.209 40.8791L161.593 41.4836L161.289 42.3373L160.859 43.11L159.721 43.2035L159.621 44.3189L159.161 45.1104L158.084 45.1727L157.605 45.9579L157.027 46.6433L156.125 46.8552H155.123L154.414 47.3101L154.047 48.4817L152.958 48.195L152.13 48.4131L151.558 49.3229L150.606 49.1983L149.909 49.89L149.094 50.2327L148.086 49.6345L147.346 50.3698L146.487 50.5318L145.629 50.6939L144.745 50.401L143.887 50.4571L143.918 50.4633Z" fill="white"/>
<path d="M143.918 7.81422L143.041 7.29077L142.194 7.65844L141.373 8.01364L140.409 7.48395L139.575 7.80799L138.866 8.48724L137.846 8.13827L137.111 8.69288L136.222 8.84244L135.55 9.45936L134.897 10.0701L134.032 10.3131L133.148 10.5624L132.619 11.3164L131.761 11.6404L131.288 12.4318L130.647 13.0176L129.907 13.5286L129.689 14.4883L129.247 15.2236L128.227 15.5601L128.127 16.5384L127.623 17.2426L126.933 17.8658L127.113 18.9065L126.578 19.6169L126.006 20.3397L126.18 21.2994L125.794 22.0846L125.601 22.9321L125.091 23.7359L125.676 24.6769L125.278 25.5119L125.328 26.3781L125.39 27.2381L125.433 28.1043L125.402 28.9767L125.552 29.8304L125.564 30.7215L125.645 31.6064L126.491 32.591L127.667 32.4726L128.103 31.9429L128.308 31.4008L128.333 30.8462L128.538 29.874L128.613 28.9705L127.816 28.1853L128.04 27.2692L128.227 26.3781L128.401 25.5306L128.239 24.6582L128.003 23.7546L128.115 22.876L128.271 22.0036L128.905 21.2869L129.341 20.5267L129.782 19.7913L130.137 19.0186L130.243 18.0901L130.504 17.2239L131.294 16.7129L131.512 15.772L132.526 15.5102L132.887 14.6503L133.434 13.9461L134.473 13.8589L134.828 12.8805L135.774 12.7372L136.495 12.2698L137.36 12.0891L137.926 11.2416L138.81 11.117L139.7 11.0858L140.49 10.6995L141.379 10.7742L142.232 10.7431L143.072 10.6496L143.918 9.97035L144.77 10.525L145.679 10.0451L146.55 10.2258L147.302 10.8864L148.242 10.687L149.051 11.0422L149.859 11.3538L150.531 11.9707L151.365 12.2262L152.006 12.8307L152.709 13.3167L153.368 13.8526L154.47 13.8713L154.644 14.9681L155.278 15.5352L155.982 16.0586L156.342 16.8625L157.338 17.2177L157.524 18.1337L158.246 18.732L158.514 19.5795L158.75 20.427L159.086 21.2308L158.881 22.1905L159.316 22.9632L159.54 23.7982L159.546 24.6644L159.677 25.5182L159.826 26.3781L159.957 27.2505L159.714 28.1043L159.266 28.9019L159.609 29.8429L158.924 30.5595L159.123 31.513L158.756 32.2296L159.235 32.8714L159.914 33.1082L160.312 33.0895L160.953 33.2142L161.743 32.3916L161.867 31.5192L162.054 30.6717L162.191 29.818L162.589 28.9954L162.67 28.1292L162.284 27.2319L162.639 26.3781L162.24 25.5244L162.365 24.6582L162.352 23.792L162.34 22.9134L161.917 22.1157L161.674 21.2931L161.276 20.5204L161.257 19.6169L161.158 18.7195L160.865 17.8845L160.268 17.2115L159.69 16.5447L159.043 15.9464L159.074 14.8559L158.52 14.1704L157.761 13.6719L157.089 13.1111L156.591 12.382L155.963 11.7775L155.191 11.3475L154.333 11.0609L153.68 10.5063L152.914 10.1074L152.28 9.47183L151.608 8.84867L150.768 8.58071L149.965 8.21305L149.038 8.2442L148.149 8.25667L147.377 7.73945L146.531 7.52757L145.672 7.30323L144.776 7.70206L143.918 7.81422Z" fill="white"/>
<path d="M138.225 22.3713L137.441 22.658L136.807 23.2188L136.321 23.9355L136.116 24.7767L135.886 25.5931L135.836 26.4468L135.656 27.2694L135.562 28.1106L135.575 28.9644L135.419 29.7994L135.139 30.6344L135.425 31.4881L135.133 32.3419L135.295 33.1831L135.425 34.0244L135.438 34.8781L135.625 35.7069L135.842 36.5295L135.948 37.3708L136.041 38.2307L136.427 38.9972L136.981 39.6453L137.466 40.2934L138.225 40.524L139.053 40.3869L139.662 39.7699L139.886 38.9349L140.378 38.2183L140.453 37.3583L140.882 36.5856L140.739 35.7007L141.068 34.8844L141.081 34.0369L141.28 33.1956L141.019 32.3356L141.162 31.4881L141.012 30.6469L141.093 29.7994L140.925 28.9644L141.124 28.0919L140.807 27.2756L140.882 26.3969L140.577 25.5868L140.216 24.8141L139.986 23.9978L139.488 23.331L139.046 22.6019L138.225 22.3713Z" fill="white"/>
<path d="M149.604 22.5396L148.895 22.7639L148.285 23.2873L147.85 24.004L147.682 24.8328L147.414 25.6242L147.029 26.4094L146.91 27.2506L146.73 28.0857V28.9456L146.593 29.7869L146.686 30.6406V31.4881L146.605 32.3356L146.885 33.1706L146.941 34.0119L146.711 34.8906L147.103 35.6944L147.134 36.5482L147.427 37.3458L147.452 38.2182L147.831 38.9847L148.092 39.826L148.851 40.2809L149.604 40.7046L150.376 40.2996L150.855 39.639L151.253 38.9224L151.62 38.1746L151.85 37.3645L152.13 36.5606L152.323 35.7318L152.379 34.8781L152.336 34.0244L152.616 33.1893L152.472 32.3356L152.497 31.4881L152.491 30.6406L152.466 29.7994L152.479 28.9456L152.261 28.1168L152.429 27.2382L152.136 26.4218L151.993 25.5806L151.664 24.7892L151.234 24.0601L151.029 23.2126L150.301 22.7826L149.604 22.5396Z" fill="white"/>
<path d="M203.079 1.99407H202.239L201.318 0.760218L200.435 0.803839L199.719 2.11247L198.904 2.33681L198.014 2.17479L196.951 1.37715L196.185 1.91306L195.221 1.7635L194.555 2.54868L193.827 3.07837L193.012 3.36502L192.334 3.95079L191.451 4.10035L190.804 4.70481L190.219 5.39029L188.931 4.95408L188.377 5.69564L187.519 6.00722L187.805 7.76452L186.672 7.71467H185.515L185.87 9.32865L184.495 9.16663L184.42 10.2634L184.053 11.0548L183.649 11.8026L183.02 12.3697L182.149 12.7872L181.39 13.3169L181.341 14.289L180.675 14.8935L179.81 15.4231L180.401 16.657L179.368 17.1306L178.951 17.8971L178.995 18.8318L179.393 19.8476L178.261 20.4022L178.043 21.2435L178.342 22.1844L177.122 22.845L177.85 23.8358L176.979 24.6085L178.099 25.5682L176.612 26.3658L178.41 27.2569L176.594 28.1481L178.348 28.927L178.199 29.7807L177.29 30.7529L178.267 31.482L178.435 32.3108L178.547 33.152L178.472 34.0494L178.945 34.8034L179.151 35.6322L179.256 36.5046L179.599 37.296L180.55 37.8008L179.891 39.0658L180.065 39.9631L180.731 40.5988L181.552 41.116L181.957 41.8762L182.243 42.7362L183.331 42.9917L184.271 43.3095L184.818 43.9327L184.762 45.1354L185.864 45.2351L186.411 45.8707L186.878 46.6123L187.382 47.3351L188.116 47.7776L188.657 48.488L188.894 49.6969L189.584 50.264L191.108 49.3604L191.799 49.8402L192.558 50.2016L193.099 51.0678L193.946 51.2548L194.717 51.6411L195.557 51.8219L196.266 52.4637L197.199 52.3017L197.983 52.7317L198.736 53.4483L199.707 52.8625L200.466 53.8534L201.387 53.4109L202.251 53.6041L203.129 53.1554L204.006 53.7537L204.864 53.4047L205.735 53.3735L206.631 53.4795L207.428 52.9373L208.336 53.0806L208.921 51.7782L210.134 53.0183L210.65 51.7035L211.466 51.4542L212.137 50.8497L212.791 50.2515L213.6 50.0334L214.309 49.591L215.31 49.6782L215.821 48.8806L216.872 48.974L217.488 48.3633L218.739 48.6126L218.763 47.2354L220.313 47.7402L220.064 46.1511L220.748 45.6401L221.003 44.7054L221.582 44.1009L222.714 43.9576L222.882 42.9979L224.139 42.8671L224.033 41.7329L224.599 41.0848L225.041 40.3495L225.987 39.8884L225.265 38.5486L225.57 37.7696L226.827 37.3957L227.355 36.6729L226.366 35.4141L226.746 34.6663L228.575 34.2986L228.911 33.4636L228.855 32.5413L229.209 31.7063L227.536 30.5908L228.09 29.8119L229.452 29.0579L228.898 28.1543L228.874 27.2881L228.139 26.4468L227.971 25.6118L228.376 24.7269L227.555 23.9729L227.405 23.1565L228.394 22.1159L228.917 21.1001L228.127 20.3897L227.411 19.698L227.237 18.8505L226.69 18.1401L227.399 16.925L226.161 16.5199L225.116 16.0899L225.613 14.8748L225.477 13.9587L224.954 13.2546L224.699 12.3759L224.064 11.7465L222.465 11.8898L223.455 9.98297L222.036 10.0515L222.055 8.84882L220.406 9.27257L219.784 8.71796L219.865 7.34078L218.683 7.42802L217.743 7.28469L218.029 5.42768L217.252 5.00393L215.777 5.74549L215.267 4.95408L214.987 3.64544L213.693 4.32469L212.766 4.35584L212.231 3.4585L211.546 2.86026L210.787 2.40536L209.979 2.10001L209.139 1.89437L208.423 1.08426L207.502 1.20889L206.631 1.10296L205.804 0.598197L204.92 0.41748L203.962 2.34927L203.135 2.019L203.079 1.99407ZM203.079 3.52081L203.962 3.54574L204.746 4.87307L205.574 4.98523L206.582 3.88848L207.465 3.94456L208.255 4.44309L208.834 5.63332L209.73 5.55854L210.389 6.22532L211.36 6.02591L212.237 6.13808L212.996 6.54313L213.873 6.71139L214.495 7.35324L215.348 7.60873L216.237 7.84553L216.312 9.20402L217.164 9.48444L217.644 10.2198L219.336 9.64646L219.435 10.8055L219.46 11.9584L221.097 11.6717L220.798 13.0427L221.868 13.3169L222.565 13.9026L223.175 14.5694L223.486 15.4169V16.414L223.566 17.3425L224.338 17.9407L224.4 18.8505L224.201 19.8289L225.477 20.3212L224.985 21.3619L225.085 22.2156L225.607 22.9821L226.428 23.7299L225.613 24.7144L225.688 25.5619L226.229 26.397L225.165 27.2694L226.018 28.1356L225.197 28.9395L226.304 29.8991L224.761 30.5597L226.41 31.7063L224.444 32.1799L225.912 33.42L225.458 34.2114L224.226 34.7161L224.736 35.8191L224.419 36.6355L223.996 37.402L223.349 38.05L223.156 38.9287L222.658 39.6453L222.024 40.2623L221.551 40.9789V42.0819L220.126 42.032L219.373 42.4869L218.987 43.2783L218.683 44.1819L217.992 44.6992L217.171 45.0481L216.934 46.1449L216.53 47.0983L215.79 47.6031L214.595 47.3351L214.184 48.3883L213.357 48.7248L212.455 48.8806L211.559 49.0052L210.781 49.4102L209.879 49.4414L208.821 48.8432L207.994 48.9429L207.477 50.6316L206.594 50.6877L205.723 50.8186L204.802 50.3325L203.95 50.5319L203.085 50.4571L202.22 50.5381L201.387 50.077L200.497 50.3886L199.676 50.0272L198.941 49.3292L197.958 49.8651L197.361 48.7933L196.409 49.055L195.656 48.6437L194.698 48.7746L194.157 47.8835L193.267 47.8025L192.533 47.3787L191.905 46.7805L190.965 46.6933L190.43 45.9642L189.062 46.3817L189.31 44.668L187.948 44.9671L187.32 44.3626L186.461 43.9887L185.633 43.5525L185.148 42.7923L184.526 42.1504L184.433 41.116L183.574 40.6424L183.636 39.5581L183.058 38.8975L183.475 37.7011L182.137 37.4144L183.039 36.0746L181.471 35.8004L181.272 34.9467L180.55 34.255L180.326 33.3951L180.862 32.3668L180.227 31.6128L181.005 30.6158L180.165 29.8617L180.202 28.9893L180.146 28.1231L180.725 27.2569L179.487 26.3658V25.4747L180.55 24.6958L180.88 23.8794L179.686 22.7951L179.997 21.9476L181.807 21.5052L182.149 20.7387L182.168 19.8725L182.641 19.1621L181.285 17.6728L182.069 17.0558L183.605 16.8689L183.481 15.8469L183.879 15.0929L183.742 13.9712L184.147 13.1735L185.049 12.7623V11.6219L185.609 10.9302L187.052 11.0922L188.159 11.0236L188.377 10.0204L188.707 9.08562L189.447 8.63071L189.989 7.90162L191.314 8.35029L191.525 7.07905L191.924 5.98852L193.162 6.48082L194.07 6.4185L194.817 6.01345L195.7 5.96359L196.447 5.54608L196.895 3.98818L198.207 5.6894L198.798 4.41816L199.775 5.09117L200.435 3.51458L201.318 3.40864L202.245 4.44309L203.091 3.52081H203.079Z" fill="white"/>
<path d="M203.079 46.7806L203.962 47.3602L204.833 47.1919L205.686 46.9551L206.401 46.0266L207.26 46.0453L208.23 46.3631L209.033 46.0266L209.854 45.7524L210.825 45.7898L211.403 44.9735L211.857 44.02L213.002 44.2693L213.593 43.59L214.52 43.3844L215.13 42.7425L215.653 42.0259L216.082 41.2345L217.395 41.2719L217.93 40.549L218.023 39.4959L218.496 38.7668L219.317 38.2558L219.305 37.2401L219.367 36.3053L220.393 35.8317L220.648 34.9905L220.232 33.9311L221.096 33.3017L221.364 32.4667L222.16 31.7251L221.003 30.6595L221.109 29.8245L221.19 28.9832L221.208 28.1419L221.905 27.2633L221.028 26.4656L221.669 25.5309L221.918 24.5962L220.916 23.9169L221.059 22.9884L220.742 21.5115L219.454 22.4712L218.85 22.5397L218.564 23.0819L218.309 23.7674L218.906 24.5401L218.745 25.4873L219.342 26.3161L219.566 27.2197L218.328 28.1419L218.931 29.0019L219.012 29.8868L218.788 30.7343L218.067 31.4634L218.384 32.4168L218.067 33.2269L217.382 33.8812L217.488 34.8534L217.631 35.9065L216.356 36.1869L216.387 37.2214L215.702 37.8009L215.404 38.6796L214.837 39.3526L213.979 39.7265L213.431 40.4182L212.971 41.2345L212.231 41.7268L211.03 41.4651L210.576 42.3811L210.01 43.2162L209.219 43.6461L208.367 43.939L207.228 43.2099L206.6 44.2319L205.673 44.0574L204.752 43.6212L203.931 43.9639L203.079 44.4999L202.245 43.6461L201.274 44.8488L200.428 44.4313L199.713 43.5464L198.705 44.0013L197.797 43.9266L197.187 43.0292L196.677 42.0882L195.594 42.35L195.177 41.3778L193.721 42.0259L193.466 40.8793L193.224 39.8386L192.334 39.5707L191.276 39.39L191.22 38.287L190.704 37.6202L189.709 37.265L189.982 36.081L189.018 35.6448L188.981 34.71L187.618 34.3361L187.525 33.4139L187.133 32.5975L187.736 31.5444L188.072 30.6221L187.755 29.8182L186.685 29.0331L187.158 28.1419L186.716 27.2508L187.494 26.4407L187.786 25.6244L187.164 24.6273L187.232 23.73L187.792 22.976L187.525 22.4338L188.041 21.4056L187.282 20.8198L186.088 21.3931L185.994 22.3715L184.812 22.9136L184.327 23.7051L184.905 24.7208L184.01 25.4624L184.053 26.3659L184.793 27.2882L184.395 28.1419L183.885 29.0331L183.829 29.9304L185.03 30.6782L185.036 31.5382L184.762 32.4729L184.569 33.4388L184.812 34.2987L185.565 34.9655L185.876 35.7819L186.741 36.3302L186.48 37.4457L187.487 37.8632L187.444 38.9164L188.564 39.1781L189.068 39.8573L189.796 40.3372L190.212 41.1036L190.312 42.2316L190.816 43.0043L191.948 42.9856L192.452 43.7521L192.844 44.774L193.684 45.1106L194.835 44.8114L195.439 45.553L196.204 46.0017L197.305 45.4969L198.008 46.0827L198.668 47.005L199.725 46.1948L200.453 47.0984L201.343 46.98L202.189 47.491L203.079 46.7806Z" fill="white"/>
<path d="M208.772 32.3668L209.661 32.0179L209.916 31.108L210.476 30.4911L211.005 29.7807L210.75 28.8397L211.217 28.0857L211.31 27.2445L211.658 26.4281L211.795 25.5869L211.857 24.7331L211.764 23.8794L211.596 23.0257L211.764 22.1782L211.372 21.3494L211.353 20.5081L211.77 19.617L211.285 18.8194L211.055 18.003L210.794 17.2116L210.688 16.3766L210.557 15.5228L210.37 14.6317L209.549 14.2017L208.772 13.9836L208.174 14.4759L207.378 14.7751L206.743 15.4231L206.488 16.2582L206.463 17.1368L205.916 17.8971L206.152 18.8007L205.829 19.617L205.605 20.4583L206.09 21.3431L205.953 22.1844L206.152 23.0257L205.779 23.8794L205.847 24.7207L206.252 25.5432L206.146 26.397L205.953 27.2819L206.289 28.0857L206.762 28.8397L206.463 29.8056L207.092 30.4787L207.509 31.1891L208.112 31.6814L208.772 32.3668Z" fill="white"/>
<path d="M197.386 32.4168L198.021 31.6316L198.643 31.1829L198.991 30.4413L199.7 29.812L200.018 28.9956L199.719 28.0609L199.788 27.2196L200.435 26.4469L200.254 25.5745L199.974 24.7083L200.509 23.8795L200.565 23.0258L200.254 22.1845L200.528 21.3183L200.565 20.4583L199.856 19.6794L200.105 18.7883L199.9 17.9657L199.806 17.112L199.396 16.3455L199.445 15.4045L198.842 14.7315L198.325 13.965L197.386 13.7781L196.484 14.0149L195.93 14.7315L195.613 15.5354L195.557 16.4016L195.32 17.1992L194.543 17.8972L194.866 18.8194L194.816 19.6607L194.76 20.502L194.592 21.337L194.661 22.1845L194.81 23.0258L194.648 23.867L194.829 24.7021L194.624 25.562L194.792 26.397L194.729 27.257L194.692 28.1294L195.065 28.9208L195.072 29.812L195.544 30.5535L196.098 31.2141L196.565 31.9245L197.386 32.4168Z" fill="white"/>
<path d="M262.24 1.3835L261.406 2.2123L260.548 1.86333L259.677 1.66392L258.756 1.21525L257.848 1.09062L257.045 1.57668L256.317 2.27462L255.346 1.96927L254.706 2.84169L253.884 3.07226L253.517 4.47437L252.484 4.1254L251.85 4.7361L250.742 4.38713L249.38 3.68919L249.305 5.29071L249.218 6.71151L247.999 6.38747H246.941L245.883 6.43732L244.776 6.50587L244.502 7.54654L243.948 8.24448L243.295 8.84271L242.704 9.49703L243.239 11.0923L242.393 11.4911L241.136 11.622L240.222 12.0644L240.483 13.2921L241.317 14.7876L239.108 14.5197L239.251 15.5791L239.73 16.7506L239.313 17.4797H236.974L239.475 19.3055L239.046 20.0222L238.903 20.8323L237.671 21.3807L238.449 22.4027L237.428 23.0632L235.668 23.6864L238.256 24.8454L237.795 25.6306L237.366 26.4407L237.298 27.2758L235.873 28.1606L235.562 29.0705L236.265 29.9055L237.851 30.5847L237.907 31.4135L238.138 32.2174L237.938 33.1147L236.271 34.4358L238.287 34.7661L238.697 35.5201L239.73 36.0249L237.777 37.7261L237.646 38.7668L240.085 38.5674L239.108 40.0443L239.581 40.7921L241.597 40.5615L240.695 42.1692L240.757 43.2099L243.046 42.5618L241.491 44.9298L244.104 43.8206L243.171 45.8459L243.874 46.4005L244.602 46.9177L244.788 48.0581L246.076 47.9023H247.165L246.922 49.7406L247.694 50.2142L249.604 48.7934L250.238 49.3605L249.99 51.6662L251.346 50.9309L252.167 51.2175L252.845 51.8594L253.841 51.6662L254.786 51.5229L255.558 51.8843L256.504 51.5789L256.827 54.1027L257.804 53.7725L258.787 53.1742L259.702 52.7193L260.467 54.0217L261.332 54.6947L262.24 54.352L263.13 53.9968L263.97 53.2552L264.822 53.1181L265.848 54.271L266.446 52.3891L267.199 51.8718L268.188 52.414L268.86 51.635L269.98 52.4015L270.919 52.4389L271.075 50.4136L271.678 49.7344L272.555 49.697L274.204 51.1116L274.658 50.1083L275.623 50.0335L275.865 48.7934L276.338 47.9896L276.91 47.3602L278.049 47.4599L278.422 46.5874L278.796 45.7462L280.643 46.4503L281.782 46.3133L281.035 44.4251L282.205 44.2942L281.396 42.5494L283.848 43.3221L282.491 41.3155L283.611 41.0476L284.295 40.4618L284.239 39.4523L283.891 38.3368L285.509 38.181L285.434 37.2151L286.79 36.8225L286.118 35.6572L286.554 34.9032L286.473 33.9934L285.901 32.9901L286.828 32.342L286.989 31.5132L286.504 30.5972L288.333 29.9491L287.954 29.0393L287.506 28.1544L288.912 27.3007L286.373 26.4843L288.725 25.5122L287.854 24.7021L286.747 23.973L287.095 23.0694L287.823 22.0599L286.274 21.524L287.431 20.3525L285.677 19.9723L287.885 18.3397L285.092 18.4269L285.316 17.4423L285.291 16.5263L284.395 16.0215L284.451 15.0431L283.144 14.825L283.767 13.4666L282.367 13.3793L282.485 12.2763L283.12 10.706L282.865 9.75876L281.863 9.44094L280.923 9.11067L280.83 7.96406L279.791 7.77088L278.061 8.43766L277.39 7.95783L277.943 5.85155L276.587 6.24414L275.896 5.74561L274.528 6.36877L274.633 4.52422L273.993 3.8886L272.81 4.35597L272.257 3.5147L271.361 3.45239L270.919 2.14999L269.644 3.25921L269.133 1.9755L267.889 3.40254L267.559 0.953521L266.265 3.22182L265.811 0.554699L264.953 0.162109L263.882 2.59243L263.136 0.274278L262.24 1.41466V1.3835ZM262.24 4.13163L263.13 3.33399L263.988 3.7702L264.828 4.1254L265.6 4.79218L266.384 5.191L267.273 5.04144L268.231 4.74856L268.903 5.50881L269.924 5.15984L270.72 5.50881L272.002 4.76725L272.512 5.79547L273.439 5.94502L273.812 7.07917L273.868 8.59345L275.318 7.94536L276.718 7.53408L276.836 8.83648L277.091 9.87716L277.309 10.8929L277.433 11.9398L278.429 12.1268L279.069 12.6689L279.561 13.3419L280.071 14.0025L281.751 13.8778L281.882 14.8437L281.521 16.0527L281.483 17.0186L282.653 17.3675L284.37 17.5545L282.796 19.1373L283.661 19.7168L284.824 20.2528L284.98 21.1314L283.07 22.4712L286.15 22.7142L286.112 23.6427L286.317 24.5339L285.341 25.5184L286.361 26.3535L285.49 27.2633L283.823 28.0796L286.479 29.0891L286 29.9553L285.502 30.7904L285.303 31.6566L283.723 32.2049L283.182 32.9216L283.561 33.8937L284.719 35.1836L284.345 36L284.084 36.8599L283.368 37.508L281.259 37.4021L282.479 39.0285L282.161 39.8636L282.342 41.0538L279.841 40.3621L278.92 40.6861L280.158 42.7924L278.429 42.4123L277.893 43.0479L278.565 44.9735L276.823 44.3503L275.84 44.4687L276.531 46.7495L274.26 45.0607L275.05 47.7839L273.233 46.4815L272.568 46.9863L271.89 47.4848L270.838 47.1732L270.446 48.3634L269.886 49.292L268.58 48.0145L267.821 48.2824L267.541 50.6442L266.639 50.6629L265.444 48.6875L264.791 50.046L263.951 50.2018L263.086 49.9151L262.246 50.4573L261.369 50.881L260.504 50.7065L259.577 51.1552L259.054 48.675L258.171 49.0365L257.2 49.5848L256.23 49.9151L255.763 48.4943L255.191 47.6406L254.307 47.6904H253.418L252.36 47.9584L251.57 47.6219L251.464 46.1138L249.822 47.1794L248.882 46.9925L248.608 45.877L247.563 45.796L247.582 44.4375L247.19 43.6274L245.286 44.3378L244.372 43.9515L244.017 43.0541L245.019 41.1161L243.98 40.8482L243.836 39.9134L242.598 39.6953L241.802 39.1469L241.223 38.449L241.528 37.3148L240.775 36.6979L240.091 36.0187L241.466 34.5979L241.895 33.6008L239.911 33.2955L240.483 32.2735L238.617 31.7687L240.863 30.5224L238.511 29.9616L239.214 29.0081L239.45 28.1295L238.89 27.2695L238.082 26.3597L239.519 25.5558L239.145 24.6523L240.359 23.9481L239.488 22.9386L239.842 22.1222L239.73 21.2L239.208 20.1219L240.209 19.5112L240.52 18.6886L240.29 17.6355L242.231 17.5669L242.2 16.6073L242.182 15.6164L243.812 15.604L242.163 13.5039L244.62 14.1707L244.484 13.0179L244.247 11.6968L245.187 11.3478H246.425L246.064 9.73383L247.65 10.195L247.296 8.4252L249.567 9.95817L248.696 7.30351L249.753 7.28481L250.674 7.11656L251.147 6.16936L252.161 6.21298L252.528 4.89812L253.822 5.68953L254.251 4.32481L255.328 4.72986L256.553 5.88271L257.437 6.06966L258.121 5.35925L258.868 4.75479L259.789 5.37795L260.56 4.72363L261.338 3.02864L262.24 4.13786V4.13163Z" fill="white"/>
<path d="M245.212 31.264L245.448 31.4509L246.163 33.0774L247.146 32.6349L247.109 31.5257L247.464 30.6221L246.419 29.974L247.314 28.9084L245.398 28.2666L246.966 27.2321L246.375 26.3784L245.404 25.4624L246.083 24.6086L246.182 23.73L247.526 23.1131L246.425 21.9602L246.773 21.1314L247.433 20.4397L247.837 19.667L247.594 18.564L248.864 18.2649L248.291 16.8628L249.193 16.3954L250.487 16.3144L251.122 15.7598L252.024 15.4981L251.881 14.0959L252.273 13.1799L253.891 13.9526L254.22 12.9369L254.855 12.3386L255.763 12.2576L256.659 12.2514L256.883 10.3757L258.134 11.4662L258.644 9.92701L259.478 9.42225L260.398 9.34748L261.381 10.3757L262.24 9.78992L263.117 10.0766L263.845 11.4849L264.971 9.64036L265.793 10.1514L266.296 11.6532L267.491 10.706L268.132 11.4911L268.642 12.4259L270.005 11.6407L270.421 12.6814L271.299 12.9306L271.367 14.2767L272.275 14.4761L273.078 14.85L273.507 15.6227L274.994 15.4856L274.204 17.2117L275.442 17.3675L276.5 17.7477L276.139 18.9566L275.971 19.9723L276.662 20.5893L277.632 21.1563L278.167 21.9291L278.379 22.8015L276.991 23.9419L278.833 24.565L278.273 25.506L278.783 26.3784L277.838 27.2259L279.113 28.2167L277.271 28.8523L277.943 29.8432L276.973 30.485L277.495 31.5319L278.254 31.9868L278.404 32.1302L278.453 32.4791L278.634 33.4513L279.704 34.0682L280.202 32.4355L279.505 31.3263L281.228 30.8652L280.911 29.8868L279.729 28.8399L281.782 28.198L281.745 27.282L280.88 26.3784L281.241 25.4935L281.346 24.5962L281.832 23.6303L281.154 22.8202L279.573 22.2718L280.917 21.0317L280.836 20.1094L279.057 19.8165L279.094 18.888L279.244 17.8598L277.763 17.6666L277.253 17.0123L276.767 16.3518L277.943 14.4511L275.816 15.0182L275.368 14.3203L275 13.5226L275.088 12.1953L274.689 11.3042L273.986 10.7309L273.265 10.1887L272.089 10.3695L271.666 9.35371L270.341 9.98933L269.445 9.93324L268.617 9.77745L268.026 8.99228L267.466 7.90175L266.595 7.73973L265.768 7.40322L264.685 8.70562L264.063 6.58065L263.155 6.49341L262.24 8.29434L261.425 8.58722L260.523 7.70857L259.702 8.03884L258.843 8.07L257.941 7.98276L257.257 8.73678L256.423 8.88634L255.664 9.2727L254.986 9.81484L253.486 8.69316L253.225 10.0703H252.205L251.495 10.5876L250.543 10.7932L250.357 11.971L248.969 11.7404L249.598 13.641L248.403 13.6784L247.949 14.4325L247.905 15.4731L246.232 15.3423L246.848 16.7818L245.131 16.788L245.697 18.0842L245.585 18.9753L244.801 19.5797L244.72 20.4646L244.011 21.1563L244.907 22.2718L243.544 22.8638L244.247 23.8484L242.866 24.5712L243.214 25.4935L243.034 26.3784L244.316 27.2134L243.028 28.1669L244.465 28.8773L243.053 29.9865L244.054 30.6844L245.212 31.264Z" fill="white"/>
<path d="M256.553 22.5273L255.9 22.8452L255.073 23.1754L254.444 23.8422L254.774 24.8829L254.17 25.5808L253.897 26.3972L253.617 27.2197L253.474 28.0672L254.183 28.9833L253.337 29.7747L253.113 30.6284L253.505 31.4884L253.81 32.3296L253.349 33.2021L253.262 34.0682L254.32 34.816L254.382 35.6448L254.27 36.511L254.245 37.3772L254.886 38.0627L254.755 38.9974L255.508 39.5022L255.614 40.5553L256.553 40.9355L257.182 40.1004L257.972 39.7577L258.351 38.9974L258.681 38.2122L259.229 37.4707L259.204 36.5858L259.434 35.757L259.67 34.9157L258.974 33.9997L259.054 33.1647L259.938 32.3483L258.992 31.4884L259.054 30.6533L259.359 29.7996L258.849 28.9957L259.813 28.0485L259.191 27.2634L258.669 26.4969L259.011 25.5621L258.134 24.9452L258.662 23.8422L257.692 23.4122L257.138 22.9386L256.553 22.5273Z" fill="white"/>
<path d="M267.933 22.6083L266.85 22.2219L266.832 23.4433L266.365 24.0852L265.917 24.808L265.668 25.6119L265.687 26.4719L265.282 27.257L264.865 28.0672L265.083 28.9458L264.517 29.7621L264.561 30.6283L264.592 31.4883L264.71 32.342L264.635 33.2082L265.544 33.9934L265.643 34.8222L265.32 35.7133L265.332 36.5733L265.973 37.2961L265.88 38.1873L266.128 38.9974L266.701 39.6267L266.999 40.5428L267.933 40.1938L268.686 40.2811L269.208 39.6579L269.27 38.7917L269.961 38.181L270.384 37.4145L270.471 36.5608L270.403 35.6946L270.807 34.8907L270.664 34.0246L271.174 33.202L271.006 32.342L271.317 31.4883L270.683 30.647L270.633 29.8058L270.465 28.977L271.056 28.0609L270.347 27.3007L270.428 26.4282L269.855 25.6929L270.154 24.7395L269.861 23.9231L269.519 23.1006L268.754 22.5958L267.933 22.6083Z" fill="white"/>
<path d="M321.401 3.47095L320.53 1.04063L319.615 0.454858L318.726 0.5421L317.767 0.0934258L317.276 2.62345L316.598 3.45225L315.055 0.498479L315.242 4.59263L314.526 4.90421L313.437 4.15642L312.05 2.83533L311.658 4.12526L310.532 3.70152L310.333 5.20333L309.02 4.53032L308.155 4.76089L307.129 4.77958L308.068 7.67727L307.122 7.73335L306.73 8.531L303.719 6.244L302.73 6.52443L303.371 8.5123L301.622 8.04493L303.277 10.7557V11.815L302.904 12.5441L300.596 11.84L299.134 11.8961L298.779 12.7436L301.013 15.0991L299.009 14.9184L300.764 16.7567L298.941 16.7754L295.494 16.2332L296.228 17.5232L298.008 19.0935L298.35 20.0657L294.673 19.9099L298.437 21.7482L294.188 21.7108L298.145 23.3123L297.081 23.9729L297.939 24.8889L296.197 25.5682L297.498 26.4593L298.319 27.2632L294.611 28.1667L297.852 28.8584L293.69 30.0674L295.532 30.7715L294.001 31.9181L298.499 31.968L296.172 33.3265L294.928 34.5666L298.58 34.4108L299.314 35.009L298.219 36.2678L296.017 38.0999L296.745 38.7854L298.586 38.8851L298.132 40.1065L297.815 41.3216L301.958 39.7949L299.712 42.2564L301.361 42.1504L300.54 43.8516L302.979 42.973L303.626 43.484L302.158 45.9953L301.84 47.6031L302.836 47.9146L303.309 48.7871L306.569 46.2259L307.284 46.6122L307.041 48.3571L306.936 50.0832L307.633 50.669L309.536 49.1173L310.582 48.893L310.992 49.9025L311.658 50.4447L311.428 53.3237L313.817 49.3479L313.63 52.5073L315.223 50.0583L315.683 51.4853L316.797 50.1767L316.859 54.408L318.072 52.2643L318.663 54.7071L319.746 52.283L320.511 54.2335L321.407 54.5949L322.185 50.6628L323.199 54.1525L324.188 55.0187L324.761 52.3391L325.912 54.1088L326.944 54.6323L327.921 54.7258L327.529 49.8215L328.593 50.6191L329.912 51.9215L331.181 52.7815L331.673 51.6349L333.228 52.875L333.328 51.018L333.906 50.2453L333.95 48.6313L334.771 48.3758L337.309 50.5568L337.733 49.5535L338.647 49.217L338.106 47.1606L340.14 48.0954L338.784 45.3784L339.412 44.8238L339.717 43.97L339.388 42.6178L342.542 44.076L343.313 43.5214L343.643 42.6427L343.979 41.7828L345.348 41.5397L343.755 39.6142L343.4 38.48L345.478 38.5236L344.807 37.2773L347.071 37.2275L343.861 35.1461L344.153 34.3983L345.877 34.0369L347.637 33.5758L345.429 32.211L345.771 31.4321L345.547 30.5659L346.729 29.8555L347.09 29.0205L347.32 28.1605L348.465 27.2881L346.542 26.4406L346.922 25.5682L345.578 24.8391L346.853 23.8482L349.019 22.6144L348.851 21.6859L348.011 20.9194L343.898 21.0814L347.712 19.0935L347.021 18.352L344.072 18.5015L344.327 17.5107L342.896 17.249L344.203 15.7036L342.15 15.8407L342.84 14.5133L343.288 13.2421L344.085 11.6468L340.576 13.0614L340.601 12.0269L339.425 11.9397L341.453 9.06691L341.49 7.77697L338.237 9.75862L340.252 6.3624L337.359 8.2942L337.695 6.55558H336.594L336.376 5.37158L335.667 4.8419L335.001 4.2312L334.983 2.4365L331.996 6.18169L332.575 3.11575L331.032 4.45554L330.316 4.01933L330.273 1.65132L329.141 2.24332L328.151 2.54244L326.82 4.42438L326.223 3.45848L325.333 3.86977L324.742 2.37419L323.908 2.3368L323.187 0.679195L322.322 0.0498047L321.413 3.5208L321.401 3.47095ZM321.401 52.4699L320.555 50.0084L319.758 49.3292L318.937 49.2669L318.209 48.6063L316.965 50.8559L315.938 51.342L315.895 48.0081L313.929 51.61L312.996 51.3981L312.498 50.077L312.361 48.1452L311.135 48.7247L310.75 47.5657L309.368 48.2324L309.256 46.7369L308.678 46.0639L308.311 45.1416L305.816 46.9051L305.436 45.9143L304.491 45.5778L306.45 42.3436L306.233 41.4649L304.285 42.0943L304.982 40.4617L302.039 41.627L300.951 41.2718L300.297 40.5863L301.79 38.6545L302.419 37.3646L301.909 36.7102L298.698 37.2088L300.061 35.682L297.498 35.6571L298.773 34.2737L301.797 32.5538L300.484 32.0615L298.151 31.6751L297.386 30.8899L300.826 29.5938L296.664 29.1139L300.77 28.0296L296.577 27.2507L297.547 26.3533L296.645 25.3874L298.4 24.6397L297.186 23.5803L296.521 22.5209L300.347 22.4025L297.442 20.7948L301.759 21.1313L300.347 19.8226L302.207 19.6419L298.449 17.1742L301.15 17.4172L302.867 17.3612L300.154 14.9059L300.185 13.8403L301.902 13.8652L304.609 14.7439L304.771 13.8715L304.036 12.2014H305.318L306.506 12.2263L304.099 8.51853L306.929 10.307L306.674 8.67432L308.379 9.47197L307.645 6.9731L308.323 6.33125L310.519 8.24434L311.869 9.03576L312.348 8.26927L313.195 8.25058L312.398 4.18758L313.213 3.73267L314.557 4.91668L315.783 6.11314L316.598 6.03213L316.952 3.60804L317.73 2.77301L318.726 3.37124L319.634 3.50834L320.623 6.20661L321.407 1.63263L322.247 4.69857L323.292 1.95044L324.089 3.29646L325.209 1.91305L325.37 6.15053L326.671 4.07541L326.907 6.56181L328.419 4.39945L328.624 6.4808L329.259 7.0915L331.592 3.81992L330.895 7.39685L331.175 8.60578L333.172 6.75499L332.886 8.83634L333.16 9.86456L333.614 10.5687L337.272 7.28468L337.297 8.69925L336.837 10.5189L336.557 11.9895H337.751L336.955 13.7593L338.716 13.3542L339.543 13.778L341.167 13.7094L341.466 14.5819L339.12 16.9436L339.991 17.3612L340.078 18.1962L342.169 18.1463L340.576 19.6793L343.581 19.4612L343.799 20.3212L344.383 21.0814L345.702 21.7046L342.579 23.2375L342.436 24.0788L342.772 24.8453L343.033 25.6367L342.038 26.4904L344.383 27.2694L345.205 28.1667L343.27 28.9208L344.303 29.868L342.131 30.4226L345.665 31.8808L345.429 32.7781L343.705 33.2829L341.938 33.6505L344.004 35.2209L343.506 35.9936L343.488 36.9595L342.125 37.3147L341.484 37.9566L340.912 38.6171L339.518 38.748L340.669 40.4928L339.829 40.9602L340.321 42.4433L338.697 42.2564L336.42 41.3341L335.891 41.8887L335.791 42.9044L337.857 46.4751L334.479 43.8018L334.118 44.6306L335.082 47.4286H334L333.857 48.9242L332.17 47.7588L332.239 49.8464L330.883 49.0924L329.676 48.463L328.369 47.3102L328.73 51.0803L327.672 50.7251L326.988 51.7845L325.432 48.6188L324.505 47.8648L324.157 51.6536L322.963 47.8959L322.322 51.3046L321.426 52.4886L321.401 52.4699Z" fill="white"/>
<path d="M340.265 22.7454L337.994 23.4246L337.789 22.5023L336.034 21.4367L336.955 23.1006L335.518 24.0789L338.305 24.3032L337.154 25.4748L338.43 26.2288L336.333 27.3006L338.361 28.1419L339.008 29.0953L338.697 30.0301L335.288 30.4414L335.468 31.2639L334.97 31.9432L336.905 33.3951L336.165 34.0619L334.852 34.4109L335.294 35.5575L335.12 36.4486L335.064 37.4644L334.945 38.4926L332.948 38.0252L331.847 38.1249L333.595 41.0725L331.362 39.9632L330.441 40.1315L331.125 42.5556L329.103 41.0538L328.581 41.7891L327.361 41.1472L327.2 42.8048L326.111 42.244L326.036 44.9049L325.202 45.4907L323.995 44.0512L323.112 43.939L322.347 45.6277L321.401 44.8613L320.574 43.6025L319.709 43.8206L318.595 45.3536L317.712 45.0233L317.264 43.1725L316.474 42.8858L315.441 43.2161L314.582 42.9856L313.817 42.5493L312.89 42.3811L313.356 40.1253L312.031 40.5615L311.229 40.2063L311.061 39.1469L310.743 38.3243L309.723 38.1436L307.514 38.7543L308.435 36.997L308.373 36.0436L307.962 35.3207V34.4109L306.021 34.3049L305.237 33.6132L307.21 32.1114L304.198 31.9432L303.949 31.0147L304.578 29.9802L305.747 28.9956L304.976 28.1419L305.611 27.2819L304.777 26.3285L305.76 25.5683L306.083 24.7582L306.65 24.0291L304.889 22.5709L305.244 22.5584L304.976 22.6207L305.841 20.1156L303.701 19.9661L303.508 22.1035L302.164 22.6394L304.08 24.0353L304.397 24.9326V25.7427L302.674 26.3908L301.778 27.2259L301.878 28.1419L304.149 28.9458L302.886 29.8681L304.702 30.4912L303.663 31.482L301.455 32.853L302.5 33.5509L304.279 33.9186L304.976 34.548L302.923 36.3427L305.971 35.8878L303.707 38.0501L306.755 37.2836L306.619 38.343L307.651 38.611L307.203 40.0131H308.485L309.468 40.1813L308.199 42.7051L310.376 41.5398L309.132 44.4749L310.613 43.9951L310.7 45.5156L313.077 43.2224L312.94 45.2476L313.282 46.6248L315.08 44.5995L315.963 44.5248L316.424 45.7773L316.778 47.9023L317.743 47.8213L318.819 46.8055L319.609 47.6094L320.48 48.3011L321.401 45.1853L322.291 47.4972L323.087 46.4254L324.089 47.5222L324.649 45.634L325.42 45.3536L326.764 47.0797L327.94 47.734L328.711 47.0922L329.669 46.9551L329.203 43.9328L329.869 43.4654L331.156 43.9951L332.488 44.4064L333.272 43.939L332.911 42.1007L333.197 41.1784L334.149 40.979L334.84 40.4742L336.924 41.0912L334.865 38.3866L337.135 38.9849L335.891 37.1839L337.092 36.9409L336.495 35.7133L339.562 36.1994L338.361 34.7536L340.259 34.4919L338.79 33.1209L340.333 32.6162L340.763 31.7812L338.106 30.4912L340.731 29.9428L341.478 29.0704L339.63 28.1419L340.993 27.2259L341.441 26.2724L341.553 25.319L337.963 25.0137L338.554 24.0727L340.265 22.7454Z" fill="white"/>
<path d="M327.094 31.6565L327.492 31.3013L328.674 31.4134L329.651 30.8775L329.165 29.7309L328.929 28.8024L329.508 28.0733L328.848 27.1261L329.109 26.3347L329.657 25.5495L329.576 24.702L329.464 23.8608L329.526 23.0257L329.128 22.2094L329.109 21.3806L329.234 20.5456L330.291 19.5921L329.035 18.9067L329.358 18.0093L330.067 16.9749L329.053 16.3579L329.427 15.2799L327.902 15.1802L327.865 14.208L327.094 14.5321L326.042 13.803L326.142 15.0867L326.079 15.8719L325.7 16.5449L323.908 16.925L323.883 17.8286L323.578 18.6698L324.568 19.6669L324.257 20.4832L323.678 21.3058L324.082 22.1782L324.207 23.0257L324.456 23.867L324.729 24.6896L323.889 25.5994L323.603 26.4967L325.314 27.1261L324.337 28.1419L324.3 29.0392L325.638 29.5315L324.866 30.728L325.463 31.4446L325.824 32.5788L327.094 31.6565Z" fill="white"/>
<path d="M315.714 32.4166L316.909 32.4603L316.666 30.9709L316.803 30.2169L318.079 29.8243L317.767 28.8584L317.363 27.9299L318.222 27.2382L318.066 26.372L318.054 25.5307L318.265 24.7019L318.097 23.8607L319.099 23.0256L317.873 22.2031L318.197 21.3556L318.029 20.533L317.998 19.698L317.668 18.9066L318.458 17.9157L318.85 16.9311L317.786 16.3267L317.046 15.7285L317.021 14.8373L316.001 14.9183L315.714 14.6691L315.074 14.4011L314.669 15.0181L314.433 15.7534L314.109 16.4762L314.258 17.3487L314.078 18.1276L313.761 18.9003L312.516 19.592L313.587 20.5455L313.064 21.3431L312.112 22.1595L312.915 23.0256L312.193 23.8918L313.518 24.6832L312.921 25.5619L313.562 26.3408L312.622 27.3192L313.723 27.9922L314.215 28.7151L314.321 29.5127L313.114 30.8961L313.742 31.6875L314.42 32.6098L315.714 32.4166Z" fill="white"/>
</g>
<defs>
<clipPath id="clip0_1_145">
<rect width="349" height="55" fill="white"/>
</clipPath>
</defs>
</svg>
