<svg width="77" height="56" fill="none" xmlns="http://www.w3.org/2000/svg">
  <path d="M75.55 16.027 39.454.201a2.378 2.378 0 0 0-1.913 0L1.446 16.027c-1.937.847-1.919 3.63 0 4.468L37.54 36.32c.607.266 1.3.27 1.913 0l25.514-11.186v25.927c0 1.312.996 2.44 2.291 2.5 1.382.066 2.522-1.048 2.522-2.432V24.251a.757.757 0 0 0-.655-.754l-30.937-4.038c-1.48-.188-2.403-1.705-2.013-3.055.305-1.14 1.375-1.866 2.459-1.79.108.006 34.4 4.483 34.376 4.48.64.083 1.167.498 1.42 1.061a.756.756 0 0 0 1.014.39c.648-.306 1.21-.71 1.465-1.625a2.442 2.442 0 0 0-1.36-2.893Z" fill="#000"/>
  <path d="m35.627 40.789-20.142-8.831a.753.753 0 0 0-1.05.698v8.735C14.434 49.583 25.004 56 38.497 56c13.494 0 24.064-6.417 24.064-14.609v-8.735a.753.753 0 0 0-1.051-.698l-20.144 8.83a7.132 7.132 0 0 1-5.74 0Z" fill="#000"/>
</svg>
