<svg width="301" height="42" viewBox="0 0 301 42" fill="none" xmlns="http://www.w3.org/2000/svg">
<path d="M299 40L279 20.2597L299 2" stroke="white" stroke-width="5"/>
<path d="M274 40L254 20.2597L274 2" stroke="white" stroke-width="5"/>
<path d="M249 40L229 20.2597L249 2" stroke="white" stroke-width="5"/>
<path d="M224 40L204 20.2597L224 2" stroke="white" stroke-width="5"/>
<path d="M199 40L179 20.2597L199 2" stroke="white" stroke-width="5"/>
<path d="M174 40L154 20.2597L174 2" stroke="white" stroke-width="5"/>
<path d="M149 40L129 20.2597L149 2" stroke="white" stroke-width="5"/>
<path d="M124 40L104 20.2597L124 2" stroke="white" stroke-width="5"/>
<path d="M99 40L79 20.2597L99 2" stroke="white" stroke-width="5"/>
<path d="M74 40L54 20.2597L74 2" stroke="white" stroke-width="5"/>
<path d="M49 40L29 20.2597L49 2" stroke="white" stroke-width="5"/>
<path d="M24 40L4 20.2597L24 2" stroke="white" stroke-width="5"/>
</svg>
