<svg width="301" height="42" viewBox="0 0 301 42" fill="none" xmlns="http://www.w3.org/2000/svg">
<path d="M2 40L22 20.2597L2 2" stroke="white" stroke-width="5"/>
<path d="M27 40L47 20.2597L27 2" stroke="white" stroke-width="5"/>
<path d="M52 40L72 20.2597L52 2" stroke="white" stroke-width="5"/>
<path d="M77 40L97 20.2597L77 2" stroke="white" stroke-width="5"/>
<path d="M102 40L122 20.2597L102 2" stroke="white" stroke-width="5"/>
<path d="M127 40L147 20.2597L127 2" stroke="white" stroke-width="5"/>
<path d="M152 40L172 20.2597L152 2" stroke="white" stroke-width="5"/>
<path d="M177 40L197 20.2597L177 2" stroke="white" stroke-width="5"/>
<path d="M202 40L222 20.2597L202 2" stroke="white" stroke-width="5"/>
<path d="M227 40L247 20.2597L227 2" stroke="white" stroke-width="5"/>
<path d="M252 40L272 20.2597L252 2" stroke="white" stroke-width="5"/>
<path d="M277 40L297 20.2597L277 2" stroke="white" stroke-width="5"/>
</svg>
